<svg xmlns="http://www.w3.org/2000/svg" width="19.792" height="19.792" viewBox="0 0 19.792 19.792">
  <path id="_036-facebook" data-name="036-facebook" d="M17.127,0H2.669A2.667,2.667,0,0,0,0,2.667V17.125a2.667,2.667,0,0,0,2.667,2.667H9.8l.012-7.073H7.974a.434.434,0,0,1-.434-.432l-.009-2.28a.434.434,0,0,1,.434-.435H9.8V7.37a3.6,3.6,0,0,1,3.842-3.948h1.871a.434.434,0,0,1,.434.434V5.777a.434.434,0,0,1-.433.434H14.365c-1.24,0-1.48.589-1.48,1.454V9.573H15.61a.434.434,0,0,1,.431.485l-.27,2.28a.434.434,0,0,1-.431.383H12.9l-.012,7.073h4.243a2.667,2.667,0,0,0,2.667-2.667V2.667A2.667,2.667,0,0,0,17.127,0Z" transform="translate(-0.002)" fill="#fff"/>
</svg>
