<svg xmlns="http://www.w3.org/2000/svg" width="80.143" height="76" viewBox="0 0 80.143 76">
  <g id="Group_142" data-name="Group 142" transform="translate(-241 -1732)">
    <g id="Group_137" data-name="Group 137" transform="translate(7 -7)">
      <rect id="Rectangle_79" data-name="Rectangle 79" width="13" height="23" rx="6.5" transform="translate(240 1748)" fill="#c730d2"/>
      <rect id="Rectangle_80" data-name="Rectangle 80" width="13" height="23" rx="6.5" transform="translate(278 1748)" fill="#a900b5"/>
    </g>
    <g id="Group_141" data-name="Group 141">
      <g id="Group_139" data-name="Group 139">
        <path id="Path_484" data-name="Path 484" d="M6,0,30.484-6.038,56,0a6.278,6.278,0,0,1,6,6.522V26.09a2.093,2.093,0,0,1-2,2.174H2A2.093,2.093,0,0,1,0,26.09V6.522A6.278,6.278,0,0,1,6,0Z" transform="translate(241 1779.736)" fill="#a900b5"/>
        <path id="Subtraction_1" data-name="Subtraction 1" d="M-6303-822a2.1,2.1,0,0,1-2-2.174v-19.567a6.285,6.285,0,0,1,6-6.522l24.485-6.038,1.515.358V-822h-30Z" transform="translate(6546 2630)" fill="#c730d2"/>
      </g>
      <g id="Group_140" data-name="Group 140">
        <path id="Path_485" data-name="Path 485" d="M12.6-1.075h22.47c2.209,0,4.664,1.155,3.95,4l-5.432,20.69C32.894,26.377,30.209,27,28,27H0L7.066,2.925A5.364,5.364,0,0,1,12.6-1.075Z" transform="translate(282 1781)" fill="#ffff16"/>
        <circle id="Ellipse_23" data-name="Ellipse 23" cx="2.5" cy="2.5" r="2.5" transform="translate(301 1791)" fill="#a900b5"/>
      </g>
    </g>
    <path id="Intersection_1" data-name="Intersection 1" d="M-6303-880.918v-12.164A12.306,12.306,0,0,1-6293-898a12.305,12.305,0,0,1,10,4.918v12.164A12.305,12.305,0,0,1-6293-876,12.306,12.306,0,0,1-6303-880.918Z" transform="translate(6565.001 2657)" fill="#efcafc"/>
    <path id="Rectangle_76" data-name="Rectangle 76" d="M0,0H31a0,0,0,0,1,0,0V12.5A15.5,15.5,0,0,1,15.5,28h0A15.5,15.5,0,0,1,0,12.5V0A0,0,0,0,1,0,0Z" transform="translate(257 1746)" fill="#fff"/>
    <g id="Group_138" data-name="Group 138">
      <path id="Rectangle_77" data-name="Rectangle 77" d="M8,0h7a0,0,0,0,1,0,0V14a0,0,0,0,1,0,0H0a0,0,0,0,1,0,0V8A8,8,0,0,1,8,0Z" transform="translate(257 1732)" fill="#69266d"/>
      <path id="Rectangle_81" data-name="Rectangle 81" d="M0,0H12a4,4,0,0,1,4,4V14a0,0,0,0,1,0,0H0a0,0,0,0,1,0,0V0A0,0,0,0,1,0,0Z" transform="translate(272 1732)" fill="#630063"/>
    </g>
  </g>
</svg>
