<svg xmlns="http://www.w3.org/2000/svg" width="18.495" height="18.496" viewBox="0 0 18.495 18.496">
  <g id="_029-instagram" data-name="029-instagram" transform="translate(0)">
    <path id="Path_480" data-name="Path 480" d="M12.986,0H5.51A5.516,5.516,0,0,0,0,5.51v7.476A5.516,5.516,0,0,0,5.51,18.5h7.476a5.516,5.516,0,0,0,5.51-5.51V5.51A5.516,5.516,0,0,0,12.986,0Zm3.649,12.986a3.649,3.649,0,0,1-3.649,3.649H5.51a3.649,3.649,0,0,1-3.649-3.649V5.51A3.649,3.649,0,0,1,5.51,1.861h7.476A3.649,3.649,0,0,1,16.635,5.51v7.476Z" transform="translate(0)" fill="#fff"/>
    <path id="Path_481" data-name="Path 481" d="M137.784,133a4.784,4.784,0,1,0,4.784,4.784A4.789,4.789,0,0,0,137.784,133Zm0,7.707a2.923,2.923,0,1,1,2.923-2.923A2.923,2.923,0,0,1,137.784,140.707Z" transform="translate(-128.536 -128.536)" fill="#fff"/>
    <ellipse id="Ellipse_21" data-name="Ellipse 21" cx="1.146" cy="1.146" rx="1.146" ry="1.146" transform="translate(12.894 3.354)" fill="#fff"/>
  </g>
</svg>
