<svg xmlns="http://www.w3.org/2000/svg" width="18.495" height="18.496" viewBox="0 0 18.495 18.496">
  <path id="_027-linkedin" data-name="027-linkedin" d="M16.822,0H1.673A1.673,1.673,0,0,0,0,1.673V16.822A1.673,1.673,0,0,0,1.673,18.5H16.822A1.673,1.673,0,0,0,18.5,16.822V1.673A1.673,1.673,0,0,0,16.822,0ZM5.723,15.97a.487.487,0,0,1-.487.487H3.164a.487.487,0,0,1-.487-.487V7.282A.487.487,0,0,1,3.164,6.8H5.236a.487.487,0,0,1,.487.487ZM4.2,5.976A1.969,1.969,0,1,1,6.169,4.007,1.969,1.969,0,0,1,4.2,5.976ZM16.554,16.009a.448.448,0,0,1-.448.448H13.883a.448.448,0,0,1-.448-.448V11.934c0-.608.178-2.664-1.589-2.664-1.371,0-1.649,1.407-1.7,2.039v4.7a.448.448,0,0,1-.448.448H7.543a.448.448,0,0,1-.448-.448V7.243A.448.448,0,0,1,7.543,6.8H9.694a.448.448,0,0,1,.448.448V8a3.053,3.053,0,0,1,2.872-1.351c3.561,0,3.541,3.327,3.541,5.155v4.2Z" fill="#fff"/>
</svg>
