<svg xmlns="http://www.w3.org/2000/svg" width="62.001" height="62.002" viewBox="0 0 62.001 62.002">
  <g id="sicon3" transform="translate(-28 -3072)">
    <g id="Group_155" data-name="Group 155" transform="translate(-91 422.001)">
      <path id="Subtraction_23" data-name="Subtraction 23" d="M-6274-838a30.806,30.806,0,0,1-12.066-2.436,30.9,30.9,0,0,1-9.853-6.643,30.89,30.89,0,0,1-6.645-9.854A30.815,30.815,0,0,1-6305-869a30.816,30.816,0,0,1,2.436-12.067,30.893,30.893,0,0,1,6.645-9.854,30.894,30.894,0,0,1,9.853-6.644A30.806,30.806,0,0,1-6274-900a30.806,30.806,0,0,1,12.067,2.436,30.9,30.9,0,0,1,9.854,6.644,30.893,30.893,0,0,1,6.645,9.854A30.816,30.816,0,0,1-6243-869a30.815,30.815,0,0,1-2.436,12.067,30.89,30.89,0,0,1-6.645,9.854,30.885,30.885,0,0,1-9.854,6.643A30.806,30.806,0,0,1-6274-838Zm0-59a28.032,28.032,0,0,0-28,28,28.031,28.031,0,0,0,28,28,28.032,28.032,0,0,0,28-28A28.033,28.033,0,0,0-6274-897Z" transform="translate(6424 3550)" fill="#d9abe9"/>
      <path id="Intersection_6" data-name="Intersection 6" d="M-6274-828a28.033,28.033,0,0,0,28-28,28.033,28.033,0,0,0-28-28v-3a30.821,30.821,0,0,1,12.065,2.435,30.937,30.937,0,0,1,9.855,6.644,30.906,30.906,0,0,1,6.644,9.855A30.818,30.818,0,0,1-6243-856a30.816,30.816,0,0,1-2.435,12.065,30.923,30.923,0,0,1-6.644,9.855,30.889,30.889,0,0,1-9.855,6.643A30.794,30.794,0,0,1-6274-825Z" transform="translate(6424 3537)" fill="#8e028e"/>
    </g>
    <g id="Group_174" data-name="Group 174" transform="translate(-83 6.001)">
      <g id="Group_171" data-name="Group 171">
        <rect id="Rectangle_127" data-name="Rectangle 127" width="31" height="26" rx="2" transform="translate(127 3087)" fill="#a900b5"/>
        <path id="Intersection_13" data-name="Intersection 13" d="M-6290-867v-26h14a2,2,0,0,1,2,2v22a2,2,0,0,1-2,2Z" transform="translate(6432 3980)" fill="#8e028e"/>
      </g>
      <g id="Group_173" data-name="Group 173">
        <g id="Group_168" data-name="Group 168" transform="translate(3)">
          <path id="Subtraction_25" data-name="Subtraction 25" d="M-6303-893h-2v-4a3,3,0,0,1,3-3h9a3,3,0,0,1,3,3v4h-2v-4a1,1,0,0,0-1-1h-9a1,1,0,0,0-1,1v4Z" transform="translate(6437 3981)" fill="#ffff16"/>
          <path id="Intersection_15" data-name="Intersection 15" d="M-6292-894a1,1,0,0,0-1-1h-5v-2h5a3,3,0,0,1,3,3v4l-2,0Z" transform="translate(6437 3978)" fill="#e2cb00"/>
        </g>
        <g id="Group_172" data-name="Group 172">
          <g id="Group_169" data-name="Group 169">
            <path id="Intersection_10" data-name="Intersection 10" d="M-6269-886.846V-895a2,2,0,0,1,2-2h27a2,2,0,0,1,2,2v8.52L-6253-881Z" transform="translate(6396 3984)" fill="#8e028e"/>
            <path id="Intersection_12" data-name="Intersection 12" d="M-6290-881.365V-897h14a2,2,0,0,1,2,2v8.519L-6289-881Z" transform="translate(6432 3984)" fill="#7b007b"/>
          </g>
          <g id="Group_170" data-name="Group 170">
            <rect id="Rectangle_128" data-name="Rectangle 128" width="6" height="7" rx="1" transform="translate(139 3097)" fill="#ffff16"/>
            <path id="Intersection_14" data-name="Intersection 14" d="M-6302-892v-7h2a1,1,0,0,1,1,1v5a1,1,0,0,1-1,1Z" transform="translate(6444 3996)" fill="#e2cb00"/>
          </g>
        </g>
      </g>
    </g>
  </g>
</svg>
