<svg xmlns="http://www.w3.org/2000/svg" width="62.001" height="62.002" viewBox="0 0 62.001 62.002">
  <g id="sicon1" transform="translate(-119 -2650)">
    <g id="Group_155" data-name="Group 155" transform="translate(0 0.001)">
      <path id="Subtraction_23" data-name="Subtraction 23" d="M-6274-838a30.806,30.806,0,0,1-12.066-2.436,30.9,30.9,0,0,1-9.853-6.643,30.89,30.89,0,0,1-6.645-9.854A30.815,30.815,0,0,1-6305-869a30.816,30.816,0,0,1,2.436-12.067,30.893,30.893,0,0,1,6.645-9.854,30.894,30.894,0,0,1,9.853-6.644A30.806,30.806,0,0,1-6274-900a30.806,30.806,0,0,1,12.067,2.436,30.9,30.9,0,0,1,9.854,6.644,30.893,30.893,0,0,1,6.645,9.854A30.816,30.816,0,0,1-6243-869a30.815,30.815,0,0,1-2.436,12.067,30.89,30.89,0,0,1-6.645,9.854,30.885,30.885,0,0,1-9.854,6.643A30.806,30.806,0,0,1-6274-838Zm0-59a28.032,28.032,0,0,0-28,28,28.031,28.031,0,0,0,28,28,28.032,28.032,0,0,0,28-28A28.033,28.033,0,0,0-6274-897Z" transform="translate(6424 3550)" fill="#d9abe9"/>
      <path id="Intersection_6" data-name="Intersection 6" d="M-6274-828a28.033,28.033,0,0,0,28-28,28.033,28.033,0,0,0-28-28v-3a30.821,30.821,0,0,1,12.065,2.435,30.937,30.937,0,0,1,9.855,6.644,30.906,30.906,0,0,1,6.644,9.855A30.818,30.818,0,0,1-6243-856a30.816,30.816,0,0,1-2.435,12.065,30.923,30.923,0,0,1-6.644,9.855,30.889,30.889,0,0,1-9.855,6.643A30.794,30.794,0,0,1-6274-825Z" transform="translate(6424 3537)" fill="#8e028e"/>
    </g>
    <g id="Group_154" data-name="Group 154" transform="translate(-0.246 0.544)">
      <g id="Group_150" data-name="Group 150" transform="translate(138.246 2685.219)">
        <path id="Path_497" data-name="Path 497" d="M6342.351,3577.37s-4.036,1.53-3.59,8.719c.107,1.214-.239,2.317.66,2.767s1.586-.686,2.075-1.468a6.861,6.861,0,0,1,2.906-2.872C6346.488,3583.148,6342.351,3577.37,6342.351,3577.37Z" transform="translate(-6338.727 -3577.37)" fill="#a900b5"/>
        <path id="Path_498" data-name="Path 498" d="M6341.366,3577.37s4.037,1.53,3.59,8.719c-.108,1.214.239,2.317-.66,2.767s-1.586-.686-2.075-1.468a6.87,6.87,0,0,0-2.906-2.872C6337.229,3583.148,6341.366,3577.37,6341.366,3577.37Z" transform="translate(-6321.856 -3577.37)" fill="#8e028e"/>
      </g>
      <g id="Group_148" data-name="Group 148" transform="translate(140.802 2659.456)">
        <path id="Union_18" data-name="Union 18" d="M9.3,36.294H3.925l0,0A37.65,37.65,0,0,1,2.39,32.449,45.315,45.315,0,0,1,.228,23.035,29.307,29.307,0,0,1,1.1,11.24,21.774,21.774,0,0,1,8.667.247.728.728,0,0,1,9.195,0,.762.762,0,0,1,9.3.008v0a.782.782,0,0,1,.418.238A21.767,21.767,0,0,1,17.286,11.24a29.307,29.307,0,0,1,.872,11.795,45.363,45.363,0,0,1-2.163,9.413,36.946,36.946,0,0,1-1.535,3.845H9.3Z" transform="translate(0 0)" fill="#f9e6ff"/>
        <path id="Intersection_4" data-name="Intersection 4" d="M0,36.283V0A.781.781,0,0,1,.418.237,21.767,21.767,0,0,1,7.985,11.23a29.307,29.307,0,0,1,.872,11.795,45.363,45.363,0,0,1-2.163,9.413,36.956,36.956,0,0,1-1.535,3.845Z" transform="translate(9.301 0.01)" fill="#dec1df"/>
      </g>
      <g id="Group_151" data-name="Group 151" transform="translate(143.585 2659.456)">
        <path id="Intersection_2" data-name="Intersection 2" d="M0,7.17A22.057,22.057,0,0,1,5.884.247.728.728,0,0,1,6.411,0a.768.768,0,0,1,.107.008h0a.78.78,0,0,1,.418.238,22.029,22.029,0,0,1,5.943,7.035A10.977,10.977,0,0,1,6.518,9.3,10.983,10.983,0,0,1,0,7.17Z" transform="translate(0)" fill="#a900b5"/>
        <path id="Subtraction_14" data-name="Subtraction 14" d="M0,9.292H0V0A.781.781,0,0,1,.418.238,22.1,22.1,0,0,1,6.362,7.273,10.954,10.954,0,0,1,0,9.292Z" transform="translate(6.518 0.009)" fill="#8e028e"/>
      </g>
      <g id="Group_152" data-name="Group 152" transform="translate(143.045 2691.466)">
        <path id="Subtraction_8" data-name="Subtraction 8" d="M7.059,4.282H1.683l0,0A37.392,37.392,0,0,1,.148.437Q.075.226,0,0H13.9l-.031.094-.117.342a37.493,37.493,0,0,1-1.534,3.844H7.059Z" transform="translate(0 0)" fill="#7d7d7d"/>
        <path id="Intersection_5" data-name="Intersection 5" d="M0,4.281V0H6.84L6.809.094c-.043.125-.081.237-.117.342A37.036,37.036,0,0,1,5.157,4.281Z" transform="translate(7.059 0)" fill="#49414a"/>
      </g>
      <g id="Group_149" data-name="Group 149" transform="translate(146.736 2685.135)">
        <path id="Union_19" data-name="Union 19" d="M3.307,16.43c-.022,0-.044,0-.065,0h0a1.248,1.248,0,0,1-.924-.607C.621,13.592.266,9.949.027,6.1c-.192-3.1.67-4,1.43-4.8.145-.152.283-.3.41-.453A2.012,2.012,0,0,1,3.244,0h.123V0A2,2,0,0,1,4.745.847c.126.156.263.3.41.453.76.795,1.622,1.7,1.429,4.8-.238,3.853-.593,7.5-2.289,9.731a1.248,1.248,0,0,1-.925.607Z" transform="translate(0 0)" fill="#a900b5"/>
        <path id="Subtraction_17" data-name="Subtraction 17" d="M0,16.43H0V0A1.992,1.992,0,0,1,1.378.843c.126.156.268.3.405.449l0,0c.76.8,1.622,1.7,1.429,4.8-.238,3.853-.592,7.5-2.289,9.731A1.247,1.247,0,0,1,0,16.43Z" transform="translate(3.368 0.004)" fill="#8e028e"/>
      </g>
      <g id="Group_153" data-name="Group 153">
        <circle id="Ellipse_24" data-name="Ellipse 24" cx="4.5" cy="4.5" r="4.5" transform="translate(146 2671)" fill="#ffff16"/>
        <path id="Intersection_7" data-name="Intersection 7" d="M-6301-889.028v-8.945a4.547,4.547,0,0,1,.5-.028,4.5,4.5,0,0,1,4.5,4.5,4.5,4.5,0,0,1-4.5,4.5A4.532,4.532,0,0,1-6301-889.028Z" transform="translate(6451 3569)" fill="#e8d000"/>
      </g>
    </g>
  </g>
</svg>
