<svg xmlns="http://www.w3.org/2000/svg" width="62.001" height="62.002" viewBox="0 0 62.001 62.002">
  <g id="sicon4" transform="translate(-28 -3281)">
    <g id="Group_155" data-name="Group 155" transform="translate(-91 631.001)">
      <path id="Subtraction_23" data-name="Subtraction 23" d="M-6274-838a30.806,30.806,0,0,1-12.066-2.436,30.9,30.9,0,0,1-9.853-6.643,30.89,30.89,0,0,1-6.645-9.854A30.815,30.815,0,0,1-6305-869a30.816,30.816,0,0,1,2.436-12.067,30.893,30.893,0,0,1,6.645-9.854,30.894,30.894,0,0,1,9.853-6.644A30.806,30.806,0,0,1-6274-900a30.806,30.806,0,0,1,12.067,2.436,30.9,30.9,0,0,1,9.854,6.644,30.893,30.893,0,0,1,6.645,9.854A30.816,30.816,0,0,1-6243-869a30.815,30.815,0,0,1-2.436,12.067,30.89,30.89,0,0,1-6.645,9.854,30.885,30.885,0,0,1-9.854,6.643A30.806,30.806,0,0,1-6274-838Zm0-59a28.032,28.032,0,0,0-28,28,28.031,28.031,0,0,0,28,28,28.032,28.032,0,0,0,28-28A28.033,28.033,0,0,0-6274-897Z" transform="translate(6424 3550)" fill="#d9abe9"/>
      <path id="Intersection_6" data-name="Intersection 6" d="M-6274-828a28.033,28.033,0,0,0,28-28,28.033,28.033,0,0,0-28-28v-3a30.821,30.821,0,0,1,12.065,2.435,30.937,30.937,0,0,1,9.855,6.644,30.906,30.906,0,0,1,6.644,9.855A30.818,30.818,0,0,1-6243-856a30.816,30.816,0,0,1-2.435,12.065,30.923,30.923,0,0,1-6.644,9.855,30.889,30.889,0,0,1-9.855,6.643A30.794,30.794,0,0,1-6274-825Z" transform="translate(6424 3537)" fill="#8e028e"/>
    </g>
    <g id="Group_181" data-name="Group 181" transform="translate(-63 -22.83)">
      <g id="Group_179" data-name="Group 179" transform="translate(114.38 3318.999)">
        <g id="Group_171" data-name="Group 171" transform="translate(0 3.518)">
          <rect id="Rectangle_127" data-name="Rectangle 127" width="16" height="13" rx="2" transform="translate(-0.38 0.312)" fill="#a900b5"/>
          <path id="Intersection_13" data-name="Intersection 13" d="M0,13V0H6A2,2,0,0,1,8,2v9a2,2,0,0,1-2,2Z" transform="translate(7.62 0.312)" fill="#8e028e"/>
        </g>
        <g id="Group_177" data-name="Group 177" transform="translate(3.517)">
          <path id="Subtraction_25" data-name="Subtraction 25" d="M.933,4H0V1A1,1,0,0,1,1,0H6A1,1,0,0,1,7,1V4H6.067V2.143a1,1,0,0,0-1-1H1.933a1,1,0,0,0-1,1V4Z" transform="translate(0.103 -0.169)" fill="#ffff16"/>
          <path id="Intersection_16" data-name="Intersection 16" d="M2.933,2.144a1,1,0,0,0-1-1H1V0H3A1,1,0,0,1,4,1V4H2.933Z" transform="translate(3.103 -0.169)" fill="#e2cb00"/>
        </g>
        <g id="Group_169" data-name="Group 169" transform="translate(0 3.518)">
          <path id="Intersection_10" data-name="Intersection 10" d="M0,5.076V2A2,2,0,0,1,2,0H14a2,2,0,0,1,2,2V5.259L8.258,8Z" transform="translate(-0.38 0.313)" fill="#8e028e"/>
          <path id="Intersection_12" data-name="Intersection 12" d="M0,7.817V0H6A2,2,0,0,1,8,2V5.259L.5,8Z" transform="translate(7.62 0.313)" fill="#7b007b"/>
        </g>
        <g id="Group_178" data-name="Group 178" transform="translate(5.862 9.38)">
          <rect id="Rectangle_128" data-name="Rectangle 128" width="4" height="3" rx="0.5" transform="translate(-0.242 0.45)" fill="#ffff16"/>
          <path id="Rectangle_147" data-name="Rectangle 147" d="M0,0H1.5A.5.5,0,0,1,2,.5v2a.5.5,0,0,1-.5.5H0A0,0,0,0,1,0,3V0A0,0,0,0,1,0,0Z" transform="translate(1.758 0.45)" fill="#e2cb00"/>
        </g>
      </g>
      <g id="Group_180" data-name="Group 180" transform="translate(105 3336.587)">
        <rect id="Rectangle_141" data-name="Rectangle 141" width="6" height="15" rx="1" transform="translate(0 0.242)" fill="#7b007b"/>
        <path id="Union_30" data-name="Union 30" d="M9.992,13.579l-.009-.039c0,.025,0,.038,0,.038L0,12.011V.35A7.689,7.689,0,0,1,5.85.841c.866.4,1.562.69,2.117.892l5.271.647a2.345,2.345,0,1,1-.571,4.655l-2.225-.273q0,.161,0,.323c2.607.3,2.894.351,3.743-.162a.4.4,0,0,1,.062-.031L21.6,1.345a2,2,0,0,1,2.8.393l.415.551a2,2,0,0,1-.393,2.8L13.575,13.268a1.991,1.991,0,0,1-1.172.4,5.222,5.222,0,0,1-.928.078A6.515,6.515,0,0,1,9.992,13.579Z" transform="translate(5.862 1.487)" fill="#ffff16"/>
        <path id="Intersection_17" data-name="Intersection 17" d="M0,6.148c1.453.153,1.772.1,2.455-.308a.4.4,0,0,1,.062-.031L9.878.264a2,2,0,0,1,2.8.393l.415.551a2,2,0,0,1-.393,2.8L1.85,12.186a1.991,1.991,0,0,1-1.172.4A4.971,4.971,0,0,1,0,12.662Zm.941-.2L0,5.837V1.112L1.513,1.3A2.345,2.345,0,1,1,.941,5.953Z" transform="translate(17.587 2.568)" fill="#e2cb00"/>
      </g>
    </g>
  </g>
</svg>
