<svg xmlns="http://www.w3.org/2000/svg" width="19.859" height="16.519" viewBox="0 0 19.859 16.519">
  <path id="_008-twitter" data-name="008-twitter" d="M19.543,36.413a7.864,7.864,0,0,1-1.369.462A4.269,4.269,0,0,0,19.3,35.08h0a.224.224,0,0,0-.327-.261h0a7.9,7.9,0,0,1-2.093.865.533.533,0,0,1-.131.016.555.555,0,0,1-.367-.14,4.281,4.281,0,0,0-2.833-1.069,4.578,4.578,0,0,0-1.356.209,4.148,4.148,0,0,0-2.8,2.989,4.567,4.567,0,0,0-.1,1.576.153.153,0,0,1-.039.12.159.159,0,0,1-.118.054H9.125a11.226,11.226,0,0,1-7.716-4.122h0a.224.224,0,0,0-.367.029h0a4.286,4.286,0,0,0,.7,5.2,3.836,3.836,0,0,1-.977-.378h0a.224.224,0,0,0-.333.193h0a4.287,4.287,0,0,0,2.5,3.949H2.838a3.853,3.853,0,0,1-.721-.069h0a.224.224,0,0,0-.255.288h0a4.291,4.291,0,0,0,3.389,2.919A7.9,7.9,0,0,1,.826,48.8h-.5a.328.328,0,0,0-.32.247.339.339,0,0,0,.162.375,11.751,11.751,0,0,0,5.9,1.592,11.912,11.912,0,0,0,5.046-1.07,11.143,11.143,0,0,0,3.692-2.767,12.129,12.129,0,0,0,2.261-3.786,11.961,11.961,0,0,0,.768-4.144v-.065a.729.729,0,0,1,.273-.567,8.462,8.462,0,0,0,1.7-1.868h0a.224.224,0,0,0-.277-.329Z" transform="translate(0 -34.491)" fill="#fff"/>
</svg>
