<svg enable-background="new 0 0 8192 310" viewBox="50 2 8192 310" xmlns="http://www.w3.org/2000/svg"><path d="m8191.6 169c.1-88.6.4-171 .4-171h-8192l.1 220.5v.1c231.7 72.7 668.7-60.5 749.2-75.8 275.8-52.3 559.2-58.1 838.5-35.6 547.6 44.2 1089.2 271.6 1642 153.4 400.6-85.6 725.9-130.1 1133.7-50.2 193.7 38 387 87.7 584.9 97.3 212.5 10.2 362.4-49.7 553.5-124.3 266.7-104.2 564.9-126.4 844.3-63.9 147.2 32.9 264.6 86.5 418.3 86.2 169.4-.4 336.8-33.7 502.4-65.9 308.7-60.1 644.4-109.9 924.7 32.6z" fill="#fff"/></svg>