<svg xmlns="http://www.w3.org/2000/svg" width="324.372" height="112.517" viewBox="0 0 324.372 112.517">
  <g id="Group_102" data-name="Group 102" transform="translate(-101.306 -451.504)">
    <g id="Group_101" data-name="Group 101" transform="translate(99.306 451.504)">
      <path id="Path_378" data-name="Path 378" d="M245.541,653.171v77.92l-93.743.33c.235-3.406-15.195-48.331,4.583-74,28.067-36.433,52.051-6.969,83.713-4.411A52.065,52.065,0,0,0,245.541,653.171Z" transform="translate(-141.176 -618.904)" fill="#fef6ff"/>
      <path id="Path_379" data-name="Path 379" d="M1273.8,562.184c-.125.973-10.282-.157-10.423.8l-63.369.22H1058.4V485.771a50.222,50.222,0,0,0,5.447-.44,52.911,52.911,0,0,0,19.637-7c71.484-41.456,129.689-30.2,162.37,2.166a97.322,97.322,0,0,1,27.941,81.687Z" transform="translate(-954.038 -451.504)" fill="#fef6ff"/>
      <path id="Path_380" data-name="Path 380" d="M1274.583,1355.977a97.749,97.749,0,0,1-.785,12.809c-.125.973-10.282-.157-10.423.8l-63.369.22H1058.4v-.063l141.6-.487,63.369-.22c.141-.958,10.3.173,10.423-.8A97.744,97.744,0,0,0,1274.583,1355.977Z" transform="translate(-954.038 -1257.556)" fill="#ebf3fa" opacity="0.6"/>
      <path id="Path_381" data-name="Path 381" d="M1291.326,702.846v59.217H1108.461v-51.53h14.018V696.47H1136.5v19h11.348v-4.245h19.768V718.4h8.6V702.283h23.029V674.642h18.209v14.742h4.153V677.034h18.21v19.023h16.5V684.384h17.651v11.674h3.291v6.789Z" transform="translate(-998.649 -650.361)" fill="#f9e6ff"/>
      <g id="Group_78" data-name="Group 78" transform="translate(65.65 39.264)">
        <rect id="Rectangle_47" data-name="Rectangle 47" width="18.976" height="18.409" rx="9.205" fill="#dec1df"/>
        <path id="Rectangle_48" data-name="Rectangle 48" d="M8.407,0h.518a8.407,8.407,0,0,1,8.407,8.407v0a8.407,8.407,0,0,1-8.407,8.407H8.407A8.407,8.407,0,0,1,0,8.407v0A8.407,8.407,0,0,1,8.407,0Z" transform="translate(0.822 0.798)" fill="#fef6ff"/>
        <g id="Group_74" data-name="Group 74" transform="translate(2.24 2.085)">
          <g id="Group_72" data-name="Group 72" transform="translate(6.854)">
            <circle id="Ellipse_14" data-name="Ellipse 14" cx="0.393" cy="0.393" r="0.393" fill="#dec1df"/>
            <path id="Path_382" data-name="Path 382" d="M814.943,838.558a.393.393,0,1,1,.153.535A.393.393,0,0,1,814.943,838.558Z" transform="translate(-811.771 -837.609)" fill="#dec1df"/>
            <path id="Path_383" data-name="Path 383" d="M838.846,859.539a.393.393,0,1,1-.117.543A.393.393,0,0,1,838.846,859.539Z" transform="translate(-832.956 -856.431)" fill="#dec1df"/>
            <circle id="Ellipse_15" data-name="Ellipse 15" cx="0.393" cy="0.393" r="0.393" transform="translate(6.722 7.056) rotate(-67.621)" fill="#dec1df"/>
            <path id="Path_384" data-name="Path 384" d="M840.878,925.453a.393.393,0,1,1-.556,0A.393.393,0,0,1,840.878,925.453Z" transform="translate(-834.33 -915.126)" fill="#dec1df"/>
            <circle id="Ellipse_16" data-name="Ellipse 16" cx="0.393" cy="0.393" r="0.393" transform="translate(3.408 12.686)" fill="#dec1df"/>
            <circle id="Ellipse_17" data-name="Ellipse 17" cx="0.393" cy="0.393" r="0.393" transform="translate(0 13.684)" fill="#dec1df"/>
          </g>
          <g id="Group_73" data-name="Group 73" transform="translate(0 0.746)">
            <path id="Path_385" data-name="Path 385" d="M758.129,838.558a.393.393,0,1,0-.153.535A.393.393,0,0,0,758.129,838.558Z" transform="translate(-753.672 -838.356)" fill="#dec1df"/>
            <path id="Path_386" data-name="Path 386" d="M734.226,859.539a.393.393,0,1,0,.117.543A.393.393,0,0,0,734.226,859.539Z" transform="translate(-732.487 -857.178)" fill="#dec1df"/>
            <circle id="Ellipse_18" data-name="Ellipse 18" cx="0.393" cy="0.393" r="0.393" transform="translate(0 5.702)" fill="#dec1df"/>
            <path id="Path_387" data-name="Path 387" d="M732.195,925.453a.393.393,0,1,0,.556,0A.393.393,0,0,0,732.195,925.453Z" transform="translate(-731.114 -915.873)" fill="#dec1df"/>
            <circle id="Ellipse_19" data-name="Ellipse 19" cx="0.393" cy="0.393" r="0.393" transform="translate(3.433 11.94)" fill="#dec1df"/>
          </g>
        </g>
        <g id="Group_77" data-name="Group 77" transform="translate(9.382 4.016)">
          <circle id="Ellipse_20" data-name="Ellipse 20" cx="0.393" cy="0.393" r="0.393" transform="translate(0 4.517)" fill="#dec1df"/>
          <g id="Group_75" data-name="Group 75" transform="translate(0.339)">
            <rect id="Rectangle_49" data-name="Rectangle 49" width="0.107" height="4.911" fill="#dec1df"/>
          </g>
          <g id="Group_76" data-name="Group 76" transform="translate(0.244 2.733)">
            <rect id="Rectangle_50" data-name="Rectangle 50" width="3.31" height="0.322" transform="translate(0 2.044) rotate(-38.137)" fill="#dec1df"/>
          </g>
        </g>
      </g>
      <path id="Path_388" data-name="Path 388" d="M1019.223,762.372v77.466h-10.9V762.651A49.815,49.815,0,0,0,1019.223,762.372Z" transform="translate(-909.411 -728.545)" fill="#f9e6ff"/>
      <path id="Path_389" data-name="Path 389" d="M2791.963,730.811v69.428h-10.9v-82.3A96.452,96.452,0,0,1,2791.963,730.811Z" transform="translate(-2489.25 -688.946)" fill="#f9e6ff"/>
      <path id="Rectangle_51" data-name="Rectangle 51" d="M.706,0h322.96a.706.706,0,0,1,.706.706v0a.706.706,0,0,1-.706.706H.706A.706.706,0,0,1,0,.706v0A.706.706,0,0,1,.706,0Z" transform="translate(2 110.995)" fill="#dec1df"/>
      <g id="Group_89" data-name="Group 89" transform="translate(116.998 58.929)">
        <path id="Path_390" data-name="Path 390" d="M1176.249,1222.994H1174.5l2.14,27.085h4.251Z" transform="translate(-1174.501 -1197.973)" fill="#b7d3f3"/>
        <g id="Group_88" data-name="Group 88" transform="translate(0)">
          <path id="Path_391" data-name="Path 391" d="M1473.223,1084.053l-.375.076a3.108,3.108,0,0,1-3.651-2.424l-.4-1.961a3.108,3.108,0,0,1,2.424-3.651l.375-.076a3.107,3.107,0,0,1,3.651,2.423l.4,1.961A3.108,3.108,0,0,1,1473.223,1084.053Z" transform="translate(-1436.722 -1066.935)" fill="#122544"/>
          <path id="Path_392" data-name="Path 392" d="M1174.5,1202.335s9.544-4.48,22.619-1.5l-20.872,1.5Z" transform="translate(-1174.502 -1177.314)" fill="#b7d3f3"/>
          <path id="Path_393" data-name="Path 393" d="M1195.2,1232.463l-4.643-27.343s14.623-4.911,25.968,0l6.748,27.171Z" transform="translate(-1188.814 -1180.098)" fill="#d2e3fc"/>
          <g id="Group_80" data-name="Group 80" transform="translate(85.155 39.142)">
            <path id="Path_394" data-name="Path 394" d="M1997.981,1357.524c-.259,2.967-1.935,3.883-2.671,3.8s-5.045-1.724-5.138-1.12,2.5,2.576,4.315,2.668c0,0-3.429,3.781-5.707,2.69s-2.473-2.821-3.894-3.47-2.633-.647-2.047.015,3.157,1.3,3.969,2.742c.192.339.379.652.522.928l-4.8-.01c-1.521-.756-2.8-1.8-2.9-2.923-.007-.086-.014-.168-.021-.246l-.148-1.729s-2.464-2.874-1.183-5.258a3.64,3.64,0,0,1,.976-1.133,8.911,8.911,0,0,1,4.168-1.277,22.473,22.473,0,0,0-1.859,3.879c-.145.51-.159.9.065,1.012.245.126.561-.24.889-.829a30.2,30.2,0,0,0,1.71-4.341s1.38-.134,2.951-.154c.7-.009,1.448,0,2.122.063a5.713,5.713,0,0,1,1.832.392s-.094.077-.251.208c-.234.2-.61.515-1.028.884-1.239,1.1-2.849,2.641-2.247,2.78.487.113,2.017-.8,3.378-1.7,1.267-.839,2.388-1.673,2.388-1.673S1998.241,1354.558,1997.981,1357.524Z" transform="translate(-1975.646 -1352.769)" fill="#82b378"/>
            <g id="Group_79" data-name="Group 79" transform="translate(0 4.812)">
              <path id="Path_395" data-name="Path 395" d="M1984.227,1397.017s-13.209-.509-16.126,3.269a9.552,9.552,0,0,1-2.63,3.692l-.309.843s2.289-2.413,3.108-2.559C1968.27,1402.261,1966.989,1397.581,1984.227,1397.017Z" transform="translate(-1964.281 -1396.994)" fill="#82b378"/>
              <path id="Path_396" data-name="Path 396" d="M1958.811,1458.423c-.113.124-.283.293-.526.517l0,.005c-.084.078-.166.162-.246.251a4.855,4.855,0,0,0-.352.442h-.617a7.412,7.412,0,0,1,1.19-1.193h0C1958.305,1458.414,1959.443,1457.726,1958.811,1458.423Z" transform="translate(-1957.065 -1451.461)" fill="#82b378"/>
            </g>
          </g>
          <g id="Group_82" data-name="Group 82" transform="translate(55.009 28.531)">
            <path id="Path_397" data-name="Path 397" d="M1699.578,1269.052s5.329-2.984,2.842-7.034c0,0-1.99-2.487-4.121-3.126,0,0,1.137,6.04,0,6.182s-.781-6.821-.781-6.821-5.613-2.7-7.816-2.487c0,0,3.482,5.9,2.345,5.755s-5.045-6.111-5.045-6.111-5.755-1.066-6.679,2.345.569,5.116,1.421,5.329,6.324.142,6.182.853-3.837,1.847-5.9,1.208c0,0,2.274,5.613,5.258,5.329s3.908-2.132,5.755-2.274,3.2.355,2.274.853-4.05.163-5.542,1.431-2.7,2.05.071,2.619,7.745.213,8.739-1.919Z" transform="translate(-1680.031 -1255.252)" fill="#a8d29f"/>
            <g id="Group_81" data-name="Group 81" transform="translate(2.92 3.568)">
              <path id="Path_398" data-name="Path 398" d="M1706.869,1288.044s14.922,4.832,16.627,10.232a11.336,11.336,0,0,0,1.421,5.187v1.066s-1.563-3.624-2.416-4.121C1722.5,1300.407,1725.841,1295.718,1706.869,1288.044Z" transform="translate(-1706.869 -1288.044)" fill="#82b378"/>
              <path id="Path_399" data-name="Path 399" d="M1868.268,1428.91l-.853,0a11.121,11.121,0,0,0-.591-3.673h0c-.052-.132-.109-.259-.171-.38l0,0c-.177-.346-.3-.6-.372-.787h0c-.436-1.07.607.244.607.244A10,10,0,0,1,1868.268,1428.91Z" transform="translate(-1848.838 -1408.889)" fill="#82b378"/>
            </g>
          </g>
          <g id="Group_84" data-name="Group 84" transform="translate(78.417 20.024)">
            <path id="Path_400" data-name="Path 400" d="M1899.757,1195.268s-7.025-3.934-3.746-9.273c0,0,2.623-3.278,5.432-4.121,0,0-1.5,7.961,0,8.149s1.03-8.992,1.03-8.992,7.4-3.559,10.3-3.278c0,0-4.589,7.774-3.091,7.587s6.65-8.055,6.65-8.055,7.587-1.4,8.8,3.091-.749,6.744-1.873,7.025-8.336.188-8.149,1.124,5.058,2.435,7.774,1.592c0,0-3,7.4-6.931,7.025s-5.151-2.81-7.587-3-4.215.468-3,1.124,5.339.215,7.306,1.887,3.559,2.7-.094,3.452-10.209.281-11.52-2.529Z" transform="translate(-1895.139 -1177.077)" fill="#a8d29f"/>
            <g id="Group_83" data-name="Group 83" transform="translate(0.908 4.704)">
              <path id="Path_401" data-name="Path 401" d="M1944.154,1220.3s-19.669,6.369-21.917,13.488a14.94,14.94,0,0,1-1.873,6.837v1.4s2.061-4.777,3.185-5.432C1923.549,1236.6,1919.146,1230.418,1944.154,1220.3Z" transform="translate(-1918.527 -1220.303)" fill="#82b378"/>
              <path id="Path_402" data-name="Path 402" d="M1906.122,1399.6v0c-.1.245-.258.582-.491,1.04l0,0c-.081.159-.156.326-.225.5,0,0,0,0,0,0a16.452,16.452,0,0,0-.781,5.852l-1.129,0a13.2,13.2,0,0,1,1.83-7.072h0C1905.352,1399.884,1906.689,1398.208,1906.122,1399.6Z" transform="translate(-1903.485 -1379.597)" fill="#82b378"/>
            </g>
          </g>
          <path id="Path_403" data-name="Path 403" d="M1371.733,1217.246h-26.719a28.429,28.429,0,0,1-1.045-3.046,51.826,51.826,0,0,1-1.569-8.476c0-.036-.008-.074-.012-.11a98.9,98.9,0,0,1-.469-12.669c.042-1.668.108-2.7.112-2.745h0c.057-.024.115-.047.171-.07,1.417-.595,2.776-1.107,4.078-1.55l.011,0q1.642-.56,3.163-.973a46.165,46.165,0,0,1,4.975-1.085,36.4,36.4,0,0,1,4.911-.453c.066,0,.131,0,.2,0q.58-.01,1.124,0a21.35,21.35,0,0,1,7.322,1.292c.171.068.318.131.441.188l.049.02c.139.062.246.114.322.152a.158.158,0,0,1,.03.016c.036.019.071.039.105.059l1.927,20.249Z" transform="translate(-1323.671 -1165.054)" fill="#8e028e"/>
          <path id="Path_404" data-name="Path 404" d="M1566.856,1219.023c-2.677,1.243-18.6,2.286-20.129,1.846-.784-.227-4.067-3.118-7.37-6.675l0,0c-3.125-3.365-6.276-7.324-7.339-10.175a17.438,17.438,0,0,1-.307-11.056s4.063-.017,5.719.983,11.126,18.443,12.392,18.9,16.267,1.32,17.984,2.136C1567.8,1214.982,1569.531,1217.78,1566.856,1219.023Z" transform="translate(-1492.17 -1171.208)" fill="#8e028e"/>
          <path id="Path_405" data-name="Path 405" d="M1421.312,1146.051l0,.986s.273,3.083-3.523,3.539-6.675-1.192-6.576-3.572a27.936,27.936,0,0,0,.735-4.633,10.7,10.7,0,0,0-.138-1.846l7.357-.158,2.168.351Z" transform="translate(-1385.45 -1124.337)" fill="#ea9e6a"/>
          <path id="Path_406" data-name="Path 406" d="M1426.249,1142.014l-.02,5.333a6.221,6.221,0,0,1-2.651.589c-3.381.005-6.747-5.437-6.854-6.115Z" transform="translate(-1390.367 -1125.633)" fill="#d88d59"/>
          <path id="Path_407" data-name="Path 407" d="M1412.12,1040.07s-9.42,1.918-10.524-3.967-3.064-9.6,2.9-11.074,7.561.552,8.408,2.427S1414.542,1039.419,1412.12,1040.07Z" transform="translate(-1375.804 -1021.098)" fill="#ea9e6a"/>
          <path id="Path_408" data-name="Path 408" d="M1393.435,995.038a19.757,19.757,0,0,1-5.73-1.541c-2.517-1.09-5.689.119-6.719.664a1.533,1.533,0,0,1,.25-.62,1.383,1.383,0,0,0-.53.787c-.047.035-.069.059-.057.068a1.771,1.771,0,0,0-.861.057s.236-.034.32.117a.141.141,0,0,0,.038.042c-3.921,1.9-4.274,8.1-3.009,9.537a31.469,31.469,0,0,1,3.35,5.609,3.332,3.332,0,0,0,.384-2.438c-.279-1.519,1.034-1.521,2.69-2.214s.272-2.625,1.721-3.8,6.767-.494,6.7-1.391C1393.953,999.191,1393.435,995.24,1393.435,995.038Z" transform="translate(-1354.506 -993.057)" fill="#8e342e"/>
          <path id="Path_409" data-name="Path 409" d="M1349.13,1368.046a28.34,28.34,0,0,1-1.045-3.046,51.811,51.811,0,0,1-1.569-8.476l-.012-.11c.02.01.054.064.076.038,1.041-1.264,3.88-2.646,7.319,2.388.686,1,3.7,8.032,4.176,9.206Z" transform="translate(-1327.787 -1315.854)" fill="#7b007b"/>
          <path id="Path_410" data-name="Path 410" d="M1396.084,1445.171a2.862,2.862,0,0,1,.363-1.739s.441-.286,1.026-.619a5.976,5.976,0,0,1,2.606-.992c.1.017.228.046.383.084,1.282.307,4.271,1.228,4.723,1.767.372.443.879,1.009,1.228,1.5Z" transform="translate(-1371.95 -1392.979)" fill="#ea9e6a"/>
          <path id="Path_411" data-name="Path 411" d="M1207.879,1242.235H1182.7a1.53,1.53,0,0,1,.019-.847c.751-1.9,2.217-5.019,3.9-8.369,1.242-2.464,2.6-5.053,3.887-7.368a52,52,0,0,1,4.378-7.005,11.368,11.368,0,0,1,2.708-2.195,19.057,19.057,0,0,1,2.527-1.262v0c.056-.024.115-.047.171-.07a22.277,22.277,0,0,1,3.143-1.022s.019.8.02,2.018c.005,3.548-.131,10.7-1.263,12.444a23.317,23.317,0,0,1-1.638,2.083l-.063.073c-.4.466-.839.968-1.3,1.484-2.628,2.943-5.955,6.4-6.361,6.82l-.042.043h.049l7.059.1,2.165.03,4.49.062a1.7,1.7,0,0,1,.736.626A4.545,4.545,0,0,1,1207.879,1242.235Z" transform="translate(-1181.768 -1190.043)" fill="#8e028e"/>
          <path id="Path_412" data-name="Path 412" d="M1635.651,1388.79c-2.677,1.243-18.6,2.286-20.129,1.846-.784-.227-4.067-3.118-7.37-6.675.163.021,1.673-2.5,8.56,3.528,0,0,1.8.8,6.712.353S1634.634,1387.228,1635.651,1388.79Z" transform="translate(-1560.964 -1340.976)" fill="#7b007b"/>
          <g id="Group_85" data-name="Group 85" transform="translate(40.842 32.319)">
            <path id="Path_413" data-name="Path 413" d="M1568.036,1460.367h-18.2a1.451,1.451,0,0,1,1.451-1.451h16.751Z" transform="translate(-1549.834 -1440.542)" fill="#e2cb00"/>
            <path id="Path_414" data-name="Path 414" d="M1659.853,1290.07h28.142l-6.75,19.824H1652.92Z" transform="translate(-1641.703 -1290.07)" fill="#e2cb00"/>
            <path id="Path_415" data-name="Path 415" d="M1691.8,1290.066l-6.75,19.824h-28.325l6.933-19.824Z" transform="translate(-1645.096 -1290.066)" fill="#ffff16"/>
            <path id="Path_416" data-name="Path 416" d="M1816.866,1368.243a1.83,1.83,0,0,1-1.688,1.372,1.056,1.056,0,0,1-1.055-1.372,1.83,1.83,0,0,1,1.688-1.371A1.056,1.056,0,0,1,1816.866,1368.243Z" transform="translate(-1785.332 -1358.514)" fill="#f9ddbf"/>
            <path id="Path_417" data-name="Path 417" d="M1815.865,1290.066l-6.75,19.824h-13.177l15.782-19.824Z" transform="translate(-1769.159 -1290.066)" fill="#e2cb00"/>
          </g>
          <path id="Path_418" data-name="Path 418" d="M1399.963,1084.053l-.375.076a3.108,3.108,0,0,1-3.651-2.424l-.4-1.961a3.108,3.108,0,0,1,2.423-3.651l.375-.076a3.107,3.107,0,0,1,3.651,2.423l.4,1.961A3.108,3.108,0,0,1,1399.963,1084.053Z" transform="translate(-1371.434 -1066.935)" fill="#122544"/>
          <g id="Group_86" data-name="Group 86" transform="translate(25.331 0)">
            <path id="Path_419" data-name="Path 419" d="M1407.571,1003.112a13.863,13.863,0,0,1,.384-7.009,4.656,4.656,0,0,1,2.252-2.746,2.41,2.41,0,0,1,1.16-.3l.989.016c-3.255,1.378-4.01,8.752-3.757,9.539a.281.281,0,0,0-.025-.055Z" transform="translate(-1407.292 -993.057)" fill="#122544"/>
          </g>
          <g id="Group_87" data-name="Group 87" transform="translate(26.905 13.065)">
            <path id="Path_420" data-name="Path 420" d="M1429.958,1117.786a10.087,10.087,0,0,1-8.206-4.367l.489-.3-.245.149.244-.15a9.5,9.5,0,0,0,7.717,4.094h.1l.006.573Z" transform="translate(-1421.752 -1113.119)" fill="#122544"/>
          </g>
          <path id="Path_421" data-name="Path 421" d="M1410.28,1099.68l-.187.038a1.549,1.549,0,0,1-1.819-1.208l-.2-.977a1.548,1.548,0,0,1,1.208-1.819l.187-.038a1.548,1.548,0,0,1,1.819,1.208l.2.977A1.548,1.548,0,0,1,1410.28,1099.68Z" transform="translate(-1382.633 -1084.483)" fill="#2b478b"/>
          <path id="Path_422" data-name="Path 422" d="M1495.276,1149.932h-.516a.479.479,0,0,1-.478-.478h0a.479.479,0,0,1,.478-.478h.516a.479.479,0,0,1,.478.478h0A.479.479,0,0,1,1495.276,1149.932Z" transform="translate(-1459.485 -1132.01)" fill="#122544"/>
        </g>
      </g>
      <g id="Group_94" data-name="Group 94" transform="translate(26.309 56.4)">
        <path id="Path_423" data-name="Path 423" d="M404.982,982.432s-4.591,2.347-1.246,7.389c0,0-3.944.456-4.936-.678a3.212,3.212,0,0,0,.324.738s-3.821-.5-5.19-1.949,2.9-20.711,13.077-16.769c0,0,9.048.825,6.48,11.024s.806,10.765.806,10.765a4.866,4.866,0,0,1-1.469.229s-.62-.364-.689-.751a2.387,2.387,0,0,0,.173.808s-3.7-.266-5.287-1.946S404.105,984.478,404.982,982.432Z" transform="translate(-387.962 -970.543)" fill="#8e342e"/>
        <path id="Path_424" data-name="Path 424" d="M524.538,1060.673l-.367.051a3.013,3.013,0,0,1-3.388-2.563l-.266-1.921a3.013,3.013,0,0,1,2.563-3.389l.367-.051a3.013,3.013,0,0,1,3.388,2.563l.267,1.921A3.013,3.013,0,0,1,524.538,1060.673Z" transform="translate(-500.965 -1043.744)" fill="#ed7d2b"/>
        <path id="Path_425" data-name="Path 425" d="M414.84,1132.608c-1.37,1.057-2.236,4.875-4.445,5.5-8.279,2.363-12.723-7.468-14.177-12.267a7.209,7.209,0,0,1,2.794-1.017c.6-.1,1.236-.182,1.762-.235.9-.769,2.155-3.789,2.232-8.384l.4.086,6.695,1.47s-.2,2.114-.242,4.106c-.035,1.558-.086,1.931.034,2.116.521.085,1.134,1.417,1.134,1.417a.015.015,0,0,0,0,.006A42.57,42.57,0,0,1,414.84,1132.608Z" transform="translate(-390.218 -1100.279)" fill="#ffb27d"/>
        <path id="Path_426" data-name="Path 426" d="M468.963,1118.48s-.2,2.113-.242,4.105c-3.76-.183-5.677-3.656-6.453-5.575Z" transform="translate(-449.081 -1100.992)" fill="#ed985f"/>
        <g id="Group_90" data-name="Group 90" transform="translate(0 23.645)">
          <path id="Path_427" data-name="Path 427" d="M395.016,1215.665s-3.937.145-8.212.159c-.506,0-1.018,0-1.527,0a46.843,46.843,0,0,1-8.359-.512c-1.422-.366-6.894-4.075-11.273-8.568a0,0,0,0,1,0,0c-.34.809-.6,1.428-.6,1.477a22.752,22.752,0,0,1-.6,2.989,36.283,36.283,0,0,1-2.7,6.917l-2.345,0-18.305-.026s3.458-5.326,2.529-18.97c-.024-.345,3.187-11.354,3.187-11.354s2.494-.437,5.378-.669c.272.248.832,7.49,4.438,7.909.587.068,4.349,5.816,4.349,5.816l1.14-5.871-1.348-7.79a41,41,0,0,1,4.117,1.263,4.544,4.544,0,0,1,2.3,2.039c2.52,4.6,10.7,19.456,11.532,19.8a60.343,60.343,0,0,0,6.844,1.482h0c4.17.762,8.647,1.485,8.647,1.485Z" transform="translate(-341.083 -1187.102)" fill="#dec1df"/>
          <path id="Path_428" data-name="Path 428" d="M532.128,1472.2l-1.311,0,0-.005Z" transform="translate(-510.171 -1441.179)" fill="#d2e3fc"/>
        </g>
        <path id="Path_429" data-name="Path 429" d="M462.707,1025s-8.9-.175-8.708-5.717-.824-9.3,4.868-9.42,6.722,2.031,7.107,3.9S465.028,1024.906,462.707,1025Z" transform="translate(-441.709 -1005.504)" fill="#ffb27d"/>
        <path id="Path_430" data-name="Path 430" d="M587.949,1342.519c-.506,0-1.018,0-1.527,0a46.831,46.831,0,0,1-8.359-.512c-1.422-.366-6.894-4.075-11.273-8.568a0,0,0,0,1,0,0,31.126,31.126,0,0,1,1.322-4.128c.4-.593,1.969,5.16,5.639,7.5s9.414,3.981,12.2,3.317C587.831,1339.68,588.023,1341.369,587.949,1342.519Z" transform="translate(-542.228 -1290.152)" fill="#efcafc"/>
        <path id="Path_431" data-name="Path 431" d="M517.983,1119.01s.057.664,1.517.768c0,0,1.226.088,1.277-.625A3.6,3.6,0,0,0,517.983,1119.01Z" transform="translate(-498.733 -1102.595)" fill="#fff"/>
        <g id="Group_91" data-name="Group 91" transform="translate(13.421 12.088)">
          <path id="Path_432" data-name="Path 432" d="M470.727,1087.47a9.78,9.78,0,0,1-6.311-6.434l.54-.134-.27.067.27-.067a9.209,9.209,0,0,0,5.939,6.038l.1.03-.162.532Z" transform="translate(-464.416 -1080.902)" fill="#122544"/>
        </g>
        <path id="Path_433" data-name="Path 433" d="M521.121,1136.063l-.477-.151a.465.465,0,0,1-.3-.581h0a.465.465,0,0,1,.581-.3l.477.151a.465.465,0,0,1,.3.581h0A.464.464,0,0,1,521.121,1136.063Z" transform="translate(-500.816 -1117.032)" fill="#ed7d2b"/>
        <path id="Path_434" data-name="Path 434" d="M454.747,995.685s-2.279,6.751-5.7,7.9-4.553-.211-4.553-.211a9.888,9.888,0,0,0,2.808-6.058S452.828,992.925,454.747,995.685Z" transform="translate(-433.243 -992.057)" fill="#8e342e"/>
        <path id="Path_435" data-name="Path 435" d="M499.582,1002.709s4.642-.26,6.029,1.061c1,.953.977,1.451,1.055,2.721,0,0,2.03-3.131-.059-5.322C504.392,998.845,499.582,1002.709,499.582,1002.709Z" transform="translate(-482.335 -997.094)" fill="#8e342e"/>
        <path id="Path_436" data-name="Path 436" d="M492.562,996.634s-1.162,6.459-5.411,8.806c0,0,4.115-4.212,4.189-8.426S492.562,996.634,492.562,996.634Z" transform="translate(-471.256 -992.292)" fill="#8e342e"/>
        <path id="Path_437" data-name="Path 437" d="M393.934,987.928c1.369,1.448,5.189,1.95,5.189,1.95a3.174,3.174,0,0,1-.323-.739c1.964,1.592,6.786.436,6.786.436-3.847-.85-2.6-6.4-1.293-6.638a120.256,120.256,0,0,1,2.983-11.741c-.17-.028-.267-.037-.267-.037C396.835,967.218,392.566,986.482,393.934,987.928Z" transform="translate(-387.962 -970.54)" fill="#8e342e"/>
        <g id="Group_93" data-name="Group 93" transform="translate(10.278)">
          <path id="Path_438" data-name="Path 438" d="M439.59,1055.44l-.367.051a3.013,3.013,0,0,1-3.389-2.563l-.266-1.921a3.013,3.013,0,0,1,2.563-3.388l.367-.051a3.013,3.013,0,0,1,3.388,2.563l.266,1.921A3.013,3.013,0,0,1,439.59,1055.44Z" transform="translate(-435.539 -1039.081)" fill="#ed7d2b"/>
          <g id="Group_92" data-name="Group 92" transform="translate(1.609)">
            <path id="Path_439" data-name="Path 439" d="M450.367,979.162c-.218-.41.548-3.592,1.674-6.06a7.476,7.476,0,0,1,2.9-3.2,2.112,2.112,0,0,1,1.209,0,9.211,9.211,0,0,1,1.061.428c-3.224,1-6.026,7.761-5.822,8.46a.235.235,0,0,0-.021-.049Z" transform="translate(-450.33 -969.81)" fill="#ed7d2b"/>
          </g>
          <path id="Path_440" data-name="Path 440" d="M449.444,1070.351l-.183.025a1.5,1.5,0,0,1-1.688-1.277l-.133-.957a1.5,1.5,0,0,1,1.277-1.688l.183-.025a1.5,1.5,0,0,1,1.688,1.277l.133.957A1.5,1.5,0,0,1,449.444,1070.351Z" transform="translate(-446.132 -1055.902)" fill="#f99746"/>
        </g>
        <path id="Path_441" data-name="Path 441" d="M664.482,1419.253a28.889,28.889,0,0,1,4.189-.02,20.879,20.879,0,0,1,2.974,2.029,21.431,21.431,0,0,1,1.163,1.923s-.364.1-.529-.047-1.41-1.472-1.41-1.472l1.279,1.944a1.082,1.082,0,0,1-.618-.213c-.175-.193-1.371-1.409-1.371-1.409l-.407-.08a4.407,4.407,0,0,1,.64.634,3.917,3.917,0,0,1,.374.625,2.982,2.982,0,0,1-.478-.116c-.114-.054-1.186-.993-1.186-.993l.568.776a1.5,1.5,0,0,1-.509-.1,7.905,7.905,0,0,0-1.109-.853,4.992,4.992,0,0,1-1.672-.285c-.458-.243-1.895-.8-1.895-.8Z" transform="translate(-629.291 -1370.254)" fill="#ffb27d"/>
        <path id="Path_442" data-name="Path 442" d="M422.192,1177.339a12.093,12.093,0,0,0-3.135,1.331s2.669,6.823,6.517,10.007l1.028-.73v1.659l3.852,2.521S421.994,1179.4,422.192,1177.339Z" transform="translate(-410.572 -1154.756)" fill="#efcafc"/>
        <path id="Path_443" data-name="Path 443" d="M395.19,1310.841a36.289,36.289,0,0,1-2.7,6.917h1.307l-1.311,0H380.321s1.411,0,1.408-.009c-.033-.123,2.057-5.789-1.408-8.11s-4.73-8.046-4.73-8.046l11.045-2.7s4.551,6.64,5.846,7.906c.994.972,3.312,1.045,3.312,1.045Z" transform="translate(-371.836 -1263.09)" fill="#efcafc"/>
        <path id="Path_444" data-name="Path 444" d="M521.376,1178.465s1.175,9.283.208,13.662c0,0,1.577-2.9,1.8-3.428l-.266-1.592,1.017.354s-.9-7.4-1.709-8.7-1.111-1.423-1.111-1.423Z" transform="translate(-501.702 -1154.756)" fill="#efcafc"/>
        <path id="Path_445" data-name="Path 445" d="M753.115,1417.549s-4.925.182-9.739.159c-1.194-1.853.268-4.072.268-4.072h0c4.17.762,8.647,1.485,8.647,1.485Z" transform="translate(-699.182 -1365.341)" fill="#ffb27d"/>
        <path id="Path_446" data-name="Path 446" d="M691.936,1460.367h-18.2a1.451,1.451,0,0,1,1.451-1.451h16.751Z" transform="translate(-637.536 -1405.694)" fill="#e2cb00"/>
        <path id="Path_447" data-name="Path 447" d="M811.895,1290.066l-6.75,19.825H776.82l6.933-19.825Z" transform="translate(-729.405 -1255.218)" fill="#e2cb00"/>
        <path id="Path_448" data-name="Path 448" d="M815.285,1290.066l-6.688,19.641-.062.183H780.624l6.933-19.825Z" transform="translate(-732.795 -1255.218)" fill="#ffff16"/>
        <path id="Path_449" data-name="Path 449" d="M940.767,1368.243a1.83,1.83,0,0,1-1.688,1.372,1.056,1.056,0,0,1-1.055-1.372,1.83,1.83,0,0,1,1.688-1.371A1.056,1.056,0,0,1,940.767,1368.243Z" transform="translate(-873.035 -1323.666)" fill="#ffc397"/>
        <path id="Path_450" data-name="Path 450" d="M939.353,1290.066l-6.688,19.641H919.842l15.636-19.641Z" transform="translate(-856.864 -1255.218)" fill="#e2cb00"/>
        <path id="Path_451" data-name="Path 451" d="M545.366,1397.407s-9.37.819-14.549.588v-5.089c3.393.937,14.545,2.959,14.545,2.959Z" transform="translate(-510.171 -1346.867)" fill="#ffb27d"/>
        <path id="Path_452" data-name="Path 452" d="M357.772,1189.566s-5.359.122-7.017,1.913,1.646,11.916,1.646,11.916,9.989,12.233,14.985,13.1c0,0,2.184.3,3.2.315,0,0-1-2.91.859-4.736,0,0-2.14-.6-2.228-.864S357.772,1189.566,357.772,1189.566Z" transform="translate(-349.287 -1165.653)" fill="#dec1df"/>
      </g>
      <g id="Group_100" data-name="Group 100" transform="translate(233.999 56.69)">
        <g id="Group_98" data-name="Group 98">
          <path id="Path_453" data-name="Path 453" d="M2288.251,973.475s-5.427-2.019-8.818,1.945c-1.944,2.273-14.376,25.974-14.228,28.049a4.732,4.732,0,0,0,1.334,3.112,5.6,5.6,0,0,1-.13-2.761s-.25,3.2,1.723,4.557c1.028.709,26.622-.68,28.845-3.779,4.835-6.74-5.724-10.227-5.465-17.507C2291.662,982.87,2295.81,973.9,2288.251,973.475Z" transform="translate(-2263.519 -972.909)" fill="#2c3a64"/>
          <path id="Path_454" data-name="Path 454" d="M2488.94,1052.126l-.364.073a3.013,3.013,0,0,1-3.54-2.349l-.384-1.9a3.013,3.013,0,0,1,2.349-3.54l.364-.073a3.013,3.013,0,0,1,3.54,2.35l.384,1.9A3.013,3.013,0,0,1,2488.94,1052.126Z" transform="translate(-2459.036 -1036.464)" fill="#ed7d2b"/>
          <path id="Path_455" data-name="Path 455" d="M2543.548,1224.064h-16.98c-2.88-4.572-5.413-10.746-6-15.553a9.386,9.386,0,0,1,.638-5.6c2.372-4.19-1.39-9.108-1.39-9.108s5.18,1.466,6.384,5.737c1.227,4.351,4.521,18.822,4.521,18.822l12.609,2.593A5.912,5.912,0,0,1,2543.548,1224.064Z" transform="translate(-2490.423 -1169.717)" fill="#8e028e"/>
          <path id="Path_456" data-name="Path 456" d="M2549.711,1338.223h-16.98c-2.88-4.572-5.412-10.746-6-15.553l2.519-.771s3.187,14.547,5.04,14.769S2549.711,1338.223,2549.711,1338.223Z" transform="translate(-2496.585 -1283.876)" fill="#7b007b"/>
          <path id="Path_457" data-name="Path 457" d="M2387.231,1129a15.568,15.568,0,0,1-5.147,2.912c-8.118,2.868-12.109-3.816-13.854-8.517a7.207,7.207,0,0,1,2.726-1.187c.594-.139,1.223-.258,1.744-.343.855-.823,1.918-3.914,1.712-8.5l.4.061,6.773,1.056s-.065,2.122.01,4.113c.061,1.557.209,3.036.543,3.364.525.053.841.091.841.091a.019.019,0,0,0,0,.006A42.548,42.548,0,0,1,2387.231,1129Z" transform="translate(-2355.334 -1098.027)" fill="#ffb27d"/>
          <path id="Path_458" data-name="Path 458" d="M2435.533,1114.984s-.066,2.121.011,4.113c-3.764.048-5.892-3.3-6.784-5.168Z" transform="translate(-2409.278 -1098.537)" fill="#ed985f"/>
          <path id="Path_459" data-name="Path 459" d="M2356.568,1201.767c-.019.146-1.828,6.03-1.847,6.178-.628,4.926-1.765,10.183-1.765,10.183l-2.487,0-16.41-.032s1.98-5.974-3.242-15.132q-.257-.45-.537-.91c-.744-1.222,3.949-14.282,3.949-14.282s2.054-.363,4.937-.6c.272.249,2.274,7.573,5.9,7.8,4.73.291,2.937-7.87,2.937-7.87a16.461,16.461,0,0,1,5.095,1.713S2356.668,1200.964,2356.568,1201.767Z" transform="translate(-2321.443 -1163.745)" fill="#8e028e"/>
          <path id="Path_460" data-name="Path 460" d="M2426.537,1019.1s-8.9.373-9.043-5.171-1.394-9.229,4.279-9.7,6.834,1.613,7.333,3.452S2428.848,1018.863,2426.537,1019.1Z" transform="translate(-2399.045 -1000.716)" fill="#ffb27d"/>
          <path id="Path_461" data-name="Path 461" d="M2484.594,1111.8s.1.659,1.561.674c0,0,1.229.013,1.236-.7A3.6,3.6,0,0,0,2484.594,1111.8Z" transform="translate(-2459.036 -1096.383)" fill="#fff"/>
          <g id="Group_95" data-name="Group 95" transform="translate(19.482 11.422)">
            <path id="Path_462" data-name="Path 462" d="M2435.455,1083.653a9.78,9.78,0,0,1-6.695-6.034l.531-.167-.265.083.265-.084a9.21,9.21,0,0,0,6.3,5.662l.1.024-.129.541Z" transform="translate(-2428.76 -1077.452)" fill="#122544"/>
          </g>
          <path id="Path_463" data-name="Path 463" d="M2488.9,1129.087l-.485-.121a.464.464,0,0,1-.337-.561h0a.464.464,0,0,1,.561-.337l.486.121a.465.465,0,0,1,.337.562h0A.464.464,0,0,1,2488.9,1129.087Z" transform="translate(-2462.127 -1111.125)" fill="#2c3a64"/>
          <path id="Path_464" data-name="Path 464" d="M2420.842,972.548s5.728-.894,8.1,3.875c1.8,3.63.3,5.9-.407,6.591,0,0-.936-5.214-2.686-5.658a1.892,1.892,0,0,0-1.9.55c-.769.895-1.883,4.885-3.161,5.5,0,0-3.969.98-4.164-.4s-.086-5.7.914-6.392A26.4,26.4,0,0,0,2420.842,972.548Z" transform="translate(-2398.39 -972.482)" fill="#2c3a64"/>
          <g id="Group_97" data-name="Group 97" transform="translate(16.296 0.052)">
            <path id="Path_465" data-name="Path 465" d="M2403.832,1052.126l-.364.073a3.013,3.013,0,0,1-3.54-2.349l-.384-1.9a3.013,3.013,0,0,1,2.35-3.54l.364-.073a3.013,3.013,0,0,1,3.54,2.35l.384,1.9A3.013,3.013,0,0,1,2403.832,1052.126Z" transform="translate(-2399.485 -1036.516)" fill="#ed7d2b"/>
            <g id="Group_96" data-name="Group 96" transform="translate(1.246)">
              <path id="Path_466" data-name="Path 466" d="M2411.208,981.724a10.908,10.908,0,0,1,.372-6.109,4.2,4.2,0,0,1,2.183-2.393,2.548,2.548,0,0,1,1.125-.261l.959.014c-3.156,1.2-3.888,7.628-3.642,8.313a.226.226,0,0,0-.024-.048Z" transform="translate(-2410.938 -972.961)" fill="#ed7d2b"/>
            </g>
            <path id="Path_467" data-name="Path 467" d="M2413.834,1067.278l-.181.037a1.5,1.5,0,0,1-1.764-1.171l-.191-.947a1.5,1.5,0,0,1,1.171-1.763l.181-.037a1.5,1.5,0,0,1,1.763,1.171l.192.947A1.5,1.5,0,0,1,2413.834,1067.278Z" transform="translate(-2410.342 -1053.529)" fill="#f99746"/>
          </g>
          <path id="Path_468" data-name="Path 468" d="M2339.109,1328.09s1.98-5.974-3.242-15.132l1.945-2.43s3.444,9.754,7.748,12.6,9.349,2.245,9.96,5Z" transform="translate(-2326.493 -1273.743)" fill="#7b007b"/>
          <path id="Path_469" data-name="Path 469" d="M2262.509,1193.245s-3.541.308-5.912,4.5-6.873,19.844-6.873,25.826h18.952a5.9,5.9,0,0,0-.223-3.111l-11.728-2.263s7.06-10.483,7.134-15A43.949,43.949,0,0,0,2262.509,1193.245Z" transform="translate(-2249.723 -1169.223)" fill="#8e028e"/>
          <path id="Path_470" data-name="Path 470" d="M2419.757,1452.273a31.538,31.538,0,0,1,4.3-.194,18.209,18.209,0,0,1,2.751,1.139,11.152,11.152,0,0,1,1.139.98,2.416,2.416,0,0,1-.75.027c-.278-.062-1.111-.118-1.333-.137a6.9,6.9,0,0,0-1.019.146h-5.725Z" transform="translate(-2400.69 -1399.852)" fill="#ffb27d"/>
        </g>
        <g id="Group_99" data-name="Group 99" transform="translate(34.305 34.558)">
          <path id="Path_471" data-name="Path 471" d="M2583.186,1460.367h-18.2a1.451,1.451,0,0,1,1.451-1.451h16.751Z" transform="translate(-2564.983 -1440.542)" fill="#e2cb00"/>
          <path id="Path_472" data-name="Path 472" d="M2703.143,1290.066l-6.75,19.825h-28.325l6.933-19.825Z" transform="translate(-2656.851 -1290.066)" fill="#e2cb00"/>
          <path id="Path_473" data-name="Path 473" d="M2706.533,1290.066l-6.688,19.641-.062.183h-27.911l6.933-19.825Z" transform="translate(-2660.241 -1290.066)" fill="#ffff16"/>
          <path id="Path_474" data-name="Path 474" d="M2832.015,1368.243a1.83,1.83,0,0,1-1.688,1.372,1.056,1.056,0,0,1-1.055-1.372,1.831,1.831,0,0,1,1.688-1.371A1.056,1.056,0,0,1,2832.015,1368.243Z" transform="translate(-2800.481 -1358.514)" fill="#f99746"/>
          <path id="Path_475" data-name="Path 475" d="M2830.6,1290.066l-6.688,19.641H2811.09l15.637-19.641Z" transform="translate(-2784.309 -1290.066)" fill="#e2cb00"/>
        </g>
      </g>
    </g>
  </g>
</svg>
