<svg xmlns="http://www.w3.org/2000/svg" width="329.796" height="256.92" viewBox="0 0 329.796 256.92">
  <g id="Group_203" data-name="Group 203" transform="translate(-23 -79.818)">
    <path id="Path_374" data-name="Path 374" d="M6438.112,990.859c-35.285,23.55-68.819,72.543-50.156,115.853s-155.136,22.738-60.655,70.378,149.3,84.454,188.963,40.061,132.974,6.5,108.479-55.22-79.317-123.432-95.648-149.418S6473.4,967.309,6438.112,990.859Z" transform="translate(-6275.984 -900.392)" fill="#b400c1"/>
    <g id="Group_62" data-name="Group 62" transform="translate(-24.89 65.511)">
      <g id="Group_9" data-name="Group 9" transform="translate(93.667 78.049)">
        <g id="Group_2" data-name="Group 2" transform="translate(24.557 16.202)">
          <path id="Path_239" data-name="Path 239" d="M228.229,140.581v-5.123a.907.907,0,0,0-.907-.907H226a.832.832,0,0,1-.814-.639,18.123,18.123,0,0,0-2.282-5.539.846.846,0,0,1,.11-1.049l.927-.927a.908.908,0,0,0,0-1.284l-3.622-3.622a.907.907,0,0,0-1.283,0l-.926.926a.845.845,0,0,1-1.049.11,18.139,18.139,0,0,0-5.54-2.285.831.831,0,0,1-.638-.814v-1.315a.908.908,0,0,0-.908-.908h-5.123a.908.908,0,0,0-.908.908v1.314a.832.832,0,0,1-.639.814,18.128,18.128,0,0,0-5.541,2.284.845.845,0,0,1-1.049-.11l-.925-.925a.907.907,0,0,0-1.283,0l-3.622,3.622a.908.908,0,0,0,0,1.284l.926.926a.844.844,0,0,1,.11,1.048,18.158,18.158,0,0,0-2.283,5.54.832.832,0,0,1-.814.639h-1.317a.907.907,0,0,0-.908.907v5.123a.908.908,0,0,0,.908.907h1.318a.832.832,0,0,1,.814.638,18.147,18.147,0,0,0,2.283,5.539.845.845,0,0,1-.11,1.049l-.927.928a.907.907,0,0,0,0,1.283l3.622,3.623a.907.907,0,0,0,1.283,0l.928-.929a.845.845,0,0,1,1.049-.11,18.14,18.14,0,0,0,5.538,2.28.832.832,0,0,1,.639.814v1.321a.908.908,0,0,0,.908.908h5.123a.908.908,0,0,0,.908-.908V156.6a.832.832,0,0,1,.639-.814,18.135,18.135,0,0,0,5.537-2.28.845.845,0,0,1,1.048.11l.929.929a.907.907,0,0,0,1.283,0l3.622-3.623a.907.907,0,0,0,0-1.283l-.928-.928a.845.845,0,0,1-.11-1.049,18.121,18.121,0,0,0,2.283-5.538.832.832,0,0,1,.814-.639h1.32A.907.907,0,0,0,228.229,140.581Zm-20.813,11.883a14.443,14.443,0,1,1,14.437-14.449A14.441,14.441,0,0,1,207.415,152.464Z" transform="translate(-186.604 -117.207)" fill="none" stroke="#dee3fc" stroke-miterlimit="10" stroke-width="0.79"/>
          <path id="Path_240" data-name="Path 240" d="M288.638,182.728v-3.491a.618.618,0,0,0-.618-.618h-.9a.567.567,0,0,1-.555-.435,12.358,12.358,0,0,0-1.555-3.774.575.575,0,0,1,.075-.715l.632-.632a.619.619,0,0,0,0-.875l-2.469-2.469a.618.618,0,0,0-.874,0l-.631.631a.577.577,0,0,1-.715.075,12.35,12.35,0,0,0-3.775-1.557.567.567,0,0,1-.435-.555v-.9a.618.618,0,0,0-.618-.618h-3.491a.618.618,0,0,0-.618.618v.9a.567.567,0,0,1-.435.555,12.362,12.362,0,0,0-3.776,1.556.577.577,0,0,1-.715-.075l-.63-.63a.618.618,0,0,0-.875,0l-2.468,2.469a.619.619,0,0,0,0,.875l.631.631a.576.576,0,0,1,.075.714,12.355,12.355,0,0,0-1.555,3.776.567.567,0,0,1-.555.435h-.9a.618.618,0,0,0-.618.618v3.491a.619.619,0,0,0,.618.619h.9a.566.566,0,0,1,.554.435,12.377,12.377,0,0,0,1.556,3.775.575.575,0,0,1-.075.715l-.632.632a.619.619,0,0,0,0,.875l2.468,2.469a.619.619,0,0,0,.875,0l.633-.633a.575.575,0,0,1,.714-.075,12.371,12.371,0,0,0,3.774,1.554.567.567,0,0,1,.435.555v.9a.618.618,0,0,0,.618.618H276.2a.618.618,0,0,0,.618-.618v-.9a.566.566,0,0,1,.435-.554,12.374,12.374,0,0,0,3.774-1.554.576.576,0,0,1,.714.075l.633.633a.618.618,0,0,0,.874,0l2.469-2.469a.619.619,0,0,0,0-.875l-.633-.632a.577.577,0,0,1-.075-.715,12.361,12.361,0,0,0,1.555-3.774.567.567,0,0,1,.555-.435h.9A.619.619,0,0,0,288.638,182.728Zm-14.184,7.543a9.288,9.288,0,1,1,9.283-9.291A9.286,9.286,0,0,1,274.454,190.271Z" transform="translate(-223.45 -142.011)" fill="#dec1df"/>
        </g>
      </g>
      <g id="Group_18" data-name="Group 18" transform="translate(167.905 74.649)">
        <g id="Group_10" data-name="Group 10">
          <rect id="Rectangle_12" data-name="Rectangle 12" width="88.97" height="171.872" rx="10" fill="#8e028e"/>
          <rect id="Rectangle_13" data-name="Rectangle 13" width="85.638" height="167.924" rx="9" transform="translate(1.666 1.505)" fill="#fff"/>
          <path id="Path_246" data-name="Path 246" d="M374.974,92.779V241.836a6.33,6.33,0,0,1-6.33,6.33H303.163a6.33,6.33,0,0,1-6.33-6.33V92.779a6.33,6.33,0,0,1,6.33-6.33h10.919a1.6,1.6,0,0,1,1.432.884l1.16,2.315a3.128,3.128,0,0,0,2.805,1.737h32.85a3.128,3.128,0,0,0,2.805-1.737l1.16-2.315a1.6,1.6,0,0,1,1.432-.884h10.919A6.33,6.33,0,0,1,374.974,92.779Z" transform="translate(-291.418 -82.221)" fill="#c17fc8"/>
          <path id="Path_247" data-name="Path 247" d="M374.991,88.677H348.533a1.114,1.114,0,0,1-1.114-1.114h0a1.114,1.114,0,0,1,1.114-1.114h26.458a1.114,1.114,0,0,1,1.114,1.114h0A1.114,1.114,0,0,1,374.991,88.677Z" transform="translate(-316.72 -82.221)" fill="#dee3fc"/>
        </g>
        <rect id="Rectangle_14" data-name="Rectangle 14" width="67.252" height="29.165" rx="8.379" transform="translate(10.097 131.607)" fill="none" stroke="#8e028e" stroke-linecap="round" stroke-linejoin="round" stroke-width="1" stroke-dasharray="2.837"/>
        <rect id="Rectangle_15" data-name="Rectangle 15" width="35.248" height="20.477" rx="6.044" transform="translate(37.949 68.726)" fill="none" stroke="#a900b5" stroke-linecap="round" stroke-linejoin="round" stroke-width="1" stroke-dasharray="2.837"/>
        <g id="Group_14" data-name="Group 14" transform="translate(10.097 91.474)">
          <rect id="Rectangle_16" data-name="Rectangle 16" width="67.519" height="32.64" rx="7.201" transform="translate(2.448 2.641)" fill="#dec1df"/>
          <path id="Path_248" data-name="Path 248" d="M373.452,264.594V290.05a3.59,3.59,0,0,1-3.594,3.589H309.794a3.59,3.59,0,0,1-3.594-3.589V264.594A3.594,3.594,0,0,1,309.794,261h60.065A3.594,3.594,0,0,1,373.452,264.594Z" transform="translate(-306.2 -261)" fill="#d01fdc"/>
          <rect id="Rectangle_17" data-name="Rectangle 17" width="22.555" height="22.555" rx="4.861" transform="translate(3.107 7.432)" fill="#fff"/>
          <g id="Group_11" data-name="Group 11" transform="translate(27.853 8.751)">
            <path id="Path_249" data-name="Path 249" d="M378.275,280.042H362.691a.767.767,0,0,1-.767-.767h0a.767.767,0,0,1,.767-.767h15.584a.768.768,0,0,1,.768.767h0A.768.768,0,0,1,378.275,280.042Z" transform="translate(-361.924 -278.508)" fill="#dec1df"/>
            <path id="Path_250" data-name="Path 250" d="M371.174,286.172h-8.483a.767.767,0,0,1-.767-.767h0a.768.768,0,0,1,.767-.768h8.483a.767.767,0,0,1,.767.768h0A.767.767,0,0,1,371.174,286.172Z" transform="translate(-361.924 -281.574)" fill="#dec1df"/>
            <path id="Path_251" data-name="Path 251" d="M408.861,286.172H385.908a.767.767,0,0,1-.767-.767h0a.768.768,0,0,1,.767-.768h22.953a.768.768,0,0,1,.767.768h0A.768.768,0,0,1,408.861,286.172Z" transform="translate(-373.536 -281.574)" fill="#dec1df"/>
            <path id="Path_252" data-name="Path 252" d="M375.816,292.3H362.691a.767.767,0,0,1-.767-.767h0a.767.767,0,0,1,.767-.767h13.125a.767.767,0,0,1,.767.767h0A.768.768,0,0,1,375.816,292.3Z" transform="translate(-361.924 -284.64)" fill="#dec1df"/>
            <path id="Path_253" data-name="Path 253" d="M402.981,292.3H394.73a.767.767,0,0,1-.767-.767h0a.767.767,0,0,1,.767-.767h8.251a.767.767,0,0,1,.767.767h0A.768.768,0,0,1,402.981,292.3Z" transform="translate(-377.949 -284.64)" fill="#dec1df"/>
            <path id="Path_254" data-name="Path 254" d="M424.227,292.3h-7.6a.768.768,0,0,1-.767-.767h0a.767.767,0,0,1,.767-.767h7.6a.767.767,0,0,1,.767.767h0A.768.768,0,0,1,424.227,292.3Z" transform="translate(-388.902 -284.64)" fill="#dec1df"/>
            <path id="Path_255" data-name="Path 255" d="M397.249,298.43H362.691a.767.767,0,0,1-.767-.767h0a.767.767,0,0,1,.767-.767h34.558a.767.767,0,0,1,.767.767h0A.767.767,0,0,1,397.249,298.43Z" transform="translate(-361.924 -287.705)" fill="#dec1df"/>
            <path id="Path_256" data-name="Path 256" d="M381.711,304.559h-19.02a.767.767,0,0,1-.767-.767h0a.767.767,0,0,1,.767-.767h19.02a.767.767,0,0,1,.767.767h0A.767.767,0,0,1,381.711,304.559Z" transform="translate(-361.924 -290.771)" fill="#dec1df"/>
            <path id="Path_257" data-name="Path 257" d="M419.349,304.559H406.877a.767.767,0,0,1-.767-.767h0a.767.767,0,0,1,.767-.767h12.472a.767.767,0,0,1,.767.767h0A.767.767,0,0,1,419.349,304.559Z" transform="translate(-384.024 -290.771)" fill="#dec1df"/>
            <path id="Path_258" data-name="Path 258" d="M373.866,310.688H362.691a.767.767,0,0,1-.767-.767h0a.767.767,0,0,1,.767-.767h11.175a.767.767,0,0,1,.767.767h0A.767.767,0,0,1,373.866,310.688Z" transform="translate(-361.924 -293.836)" fill="#dec1df"/>
            <path id="Path_259" data-name="Path 259" d="M402.274,310.688H391.1a.767.767,0,0,1-.767-.767h0a.767.767,0,0,1,.767-.767h11.175a.767.767,0,0,1,.767.767h0A.767.767,0,0,1,402.274,310.688Z" transform="translate(-376.133 -293.836)" fill="#dec1df"/>
            <path id="Path_260" data-name="Path 260" d="M425.342,310.688h-6.484a.767.767,0,0,1-.767-.767h0a.767.767,0,0,1,.767-.767h6.484a.768.768,0,0,1,.767.767h0A.767.767,0,0,1,425.342,310.688Z" transform="translate(-390.016 -293.836)" fill="#dec1df"/>
            <path id="Path_261" data-name="Path 261" d="M378.275,316.818H362.691a.768.768,0,0,1-.767-.768h0a.767.767,0,0,1,.767-.767h15.584a.768.768,0,0,1,.768.767h0A.768.768,0,0,1,378.275,316.818Z" transform="translate(-361.924 -296.902)" fill="#dec1df"/>
            <path id="Path_262" data-name="Path 262" d="M416.235,280.042H400.65a.767.767,0,0,1-.767-.767h0a.767.767,0,0,1,.767-.767h15.585a.767.767,0,0,1,.767.767h0A.767.767,0,0,1,416.235,280.042Z" transform="translate(-380.91 -278.508)" fill="#dec1df"/>
          </g>
          <g id="Group_13" data-name="Group 13">
            <path id="Path_263" data-name="Path 263" d="M373.452,264.594v1.07H306.2v-1.07A3.594,3.594,0,0,1,309.794,261h60.065A3.594,3.594,0,0,1,373.452,264.594Z" transform="translate(-306.2 -261)" fill="#a900b5"/>
            <g id="Group_12" data-name="Group 12" transform="translate(52.91 1.583)">
              <path id="Path_264" data-name="Path 264" d="M413.721,265a.833.833,0,1,1-.833-.833A.833.833,0,0,1,413.721,265Z" transform="translate(-412.055 -264.167)" fill="#dee3fc"/>
              <path id="Path_265" data-name="Path 265" d="M422.249,265a.833.833,0,1,1-.833-.833A.833.833,0,0,1,422.249,265Z" transform="translate(-416.32 -264.167)" fill="#dee3fc"/>
              <path id="Path_266" data-name="Path 266" d="M430.777,265a.833.833,0,1,1-.833-.833A.833.833,0,0,1,430.777,265Z" transform="translate(-420.586 -264.167)" fill="#dee3fc"/>
            </g>
          </g>
        </g>
        <g id="Group_16" data-name="Group 16" transform="translate(14.034 68.745)">
          <rect id="Rectangle_18" data-name="Rectangle 18" width="20.458" height="20.458" rx="7.151" fill="none" stroke="#a900b5" stroke-miterlimit="10" stroke-width="0.896"/>
          <g id="Group_15" data-name="Group 15" transform="translate(4.09 7.27)">
            <path id="Path_267" data-name="Path 267" d="M325.208,230.071l-2.948,2.948,2.971,2.971" transform="translate(-322.26 -230.071)" fill="none" stroke="#a900b5" stroke-linecap="round" stroke-linejoin="round" stroke-width="1.672"/>
            <path id="Path_268" data-name="Path 268" d="M340.9,230.071l2.947,2.948-2.971,2.971" transform="translate(-331.573 -230.071)" fill="none" stroke="#a900b5" stroke-linecap="round" stroke-linejoin="round" stroke-width="1.672"/>
            <line id="Line_1" data-name="Line 1" x1="2.76" y2="5.918" transform="translate(4.759)" fill="none" stroke="#a900b5" stroke-linecap="round" stroke-linejoin="round" stroke-width="1.672"/>
          </g>
        </g>
        <g id="Group_17" data-name="Group 17" transform="translate(10.097 14.72)">
          <rect id="Rectangle_19" data-name="Rectangle 19" width="67.252" height="49.798" rx="8.18" fill="#dec1df"/>
          <circle id="Ellipse_8" data-name="Ellipse 8" cx="9.747" cy="9.747" r="9.747" transform="translate(43.885 3.404)" fill="#f0f4ff"/>
          <path id="Path_269" data-name="Path 269" d="M345.732,168.483H310.289a4.09,4.09,0,0,1-4.089-4.089v-6.553l15.51-26.866a2.107,2.107,0,0,1,3.649,0l11.711,20.283,8.7,15.065A2.067,2.067,0,0,1,345.732,168.483Z" transform="translate(-306.2 -118.685)" fill="#fff"/>
          <path id="Path_270" data-name="Path 270" d="M381.954,179.6H348.06l9.947-17.224,5.358-9.282a1.9,1.9,0,0,1,3.284,0Z" transform="translate(-327.137 -129.799)" fill="#f0f4ff"/>
        </g>
      </g>
      <g id="Group_28" data-name="Group 28" transform="translate(245.634 141.506)">
        <g id="Group_20" data-name="Group 20" transform="translate(28.282 75.001)">
          <rect id="Rectangle_20" data-name="Rectangle 20" width="26.129" height="39.268" fill="#8e028e"/>
          <rect id="Rectangle_21" data-name="Rectangle 21" width="10.005" height="39.268" transform="translate(36.134 39.268) rotate(180)" fill="#94049e"/>
          <g id="Group_19" data-name="Group 19" transform="translate(27.562 1.508)">
            <rect id="Rectangle_22" data-name="Rectangle 22" width="7.346" height="1.253" fill="#dec1df"/>
            <rect id="Rectangle_23" data-name="Rectangle 23" width="7.346" height="1.253" transform="translate(0 2.692)" fill="#dec1df"/>
            <rect id="Rectangle_24" data-name="Rectangle 24" width="7.346" height="1.253" transform="translate(0 5.384)" fill="#dec1df"/>
            <rect id="Rectangle_25" data-name="Rectangle 25" width="7.346" height="1.253" transform="translate(0 8.077)" fill="#dec1df"/>
            <rect id="Rectangle_26" data-name="Rectangle 26" width="7.346" height="1.253" transform="translate(0 10.769)" fill="#dec1df"/>
            <rect id="Rectangle_27" data-name="Rectangle 27" width="7.346" height="1.253" transform="translate(0 13.461)" fill="#dec1df"/>
            <rect id="Rectangle_28" data-name="Rectangle 28" width="7.346" height="1.253" transform="translate(0 16.153)" fill="#dec1df"/>
            <rect id="Rectangle_29" data-name="Rectangle 29" width="7.346" height="1.253" transform="translate(0 18.846)" fill="#dec1df"/>
            <rect id="Rectangle_30" data-name="Rectangle 30" width="7.346" height="1.253" transform="translate(0 21.538)" fill="#dec1df"/>
            <rect id="Rectangle_31" data-name="Rectangle 31" width="7.346" height="1.253" transform="translate(0 24.23)" fill="#dec1df"/>
            <rect id="Rectangle_32" data-name="Rectangle 32" width="7.346" height="1.253" transform="translate(0 26.922)" fill="#dec1df"/>
            <rect id="Rectangle_33" data-name="Rectangle 33" width="7.346" height="1.253" transform="translate(0 29.614)" fill="#dec1df"/>
            <rect id="Rectangle_34" data-name="Rectangle 34" width="7.346" height="1.253" transform="translate(0 32.307)" fill="#dec1df"/>
            <rect id="Rectangle_35" data-name="Rectangle 35" width="7.346" height="1.253" transform="translate(0 34.999)" fill="#dec1df"/>
          </g>
        </g>
        <g id="Group_27" data-name="Group 27" transform="translate(0 0)">
          <path id="Path_271" data-name="Path 271" d="M489.583,435.065h13.28a7.244,7.244,0,0,0-.866-5.294s-1.069.857-4.271.277a14.243,14.243,0,0,1-2.259,1.578C494.539,432.075,489.225,433.119,489.583,435.065Z" transform="translate(-465.546 -320.797)" fill="#281616"/>
          <path id="Path_272" data-name="Path 272" d="M491.15,362.756c.858,5.118,4.815,22.432,6.517,32.661a15.608,15.608,0,0,0,5.394-.274c-.155-3.567-.462-12.1-.426-15.84.059-6.323.356-14.662-2.428-19.238l-9.36.737c.057.494.109.9.154,1.184S491.1,362.514,491.15,362.756Z" transform="translate(-466.187 -285.931)" fill="#38043b"/>
          <path id="Path_273" data-name="Path 273" d="M441.527,435.065h13.28a7.244,7.244,0,0,0-.866-5.294s-1.069.857-4.271.277a14.257,14.257,0,0,1-2.259,1.578C446.483,432.075,441.169,433.119,441.527,435.065Z" transform="translate(-441.509 -320.797)" fill="#281616"/>
          <path id="Path_274" data-name="Path 274" d="M457.066,392.038a15.236,15.236,0,0,0,5.246.469c.706-4.112,1.821-13.158,2.825-17.4,1.557-6.591,3.082-15.656,2.023-18.89l-9.207-2.312C457.922,354.2,457.172,381.94,457.066,392.038Z" transform="translate(-449.29 -282.852)" fill="#450d48"/>
          <path id="Path_275" data-name="Path 275" d="M494.573,331.874h0c-.185-1.819-.4-3.148-.4-3.148l-10.287,2.518-8.738,1.991c-3.239.722-7.153,1.59-10.6,2.37-3.871.88-6.441,3.82-5.593,7.7l.97,4.7c5.415-.074,30.872-2.514,33.049-3.614C495.435,343.147,496.175,338.755,494.573,331.874Z" transform="translate(-450.154 -270.257)" fill="#450d48"/>
          <path id="Path_276" data-name="Path 276" d="M525.295,331.251h0a14.212,14.212,0,0,0-1.072-3.772l-9.612,3.141-8.738,1.991c-3.239.722-7.153,1.59-10.6,2.37-3.871.88-6.441,3.82-5.594,7.7l.971,4.7c5.414-.074,28.046-.863,33.049-3.614C526.111,342.438,526.9,338.131,525.295,331.251Z" transform="translate(-465.52 -269.633)" fill="#38043b"/>
          <g id="Group_21" data-name="Group 21" transform="translate(15.861 45.959)">
            <path id="Path_277" data-name="Path 277" d="M488.365,304.614s4.569-2.064,5.826.006a3.233,3.233,0,0,1-1.346,4.122,106.592,106.592,0,0,1-18.675,6.685,20.172,20.172,0,0,0-.927-2.371,43.757,43.757,0,0,0,7.435-4.15,47.391,47.391,0,0,1,7.687-4.292Z" transform="translate(-473.243 -303.698)" fill="#e5918f"/>
          </g>
          <path id="Path_278" data-name="Path 278" d="M501.864,276.985l-3.916,15.64s.4,3.954,4.4,2.013,6.64-14.4,6.64-14.4Z" transform="translate(-469.738 -244.378)" fill="#e5918f"/>
          <path id="Path_279" data-name="Path 279" d="M510.6,276.722c-.484-.117-.947-.245-1.393-.379s-.891-.273-1.3-.418a21.967,21.967,0,0,1-5.732-2.808,41.073,41.073,0,0,1,3.832-10.75,1.6,1.6,0,0,0,.095-.167l.1-.167a9.779,9.779,0,0,1,2.724-2.835l.328-.228.462,8.166.078.841Z" transform="translate(-471.852 -235.367)" fill="#ffff16"/>
          <path id="Path_280" data-name="Path 280" d="M516.338,284.726c-.484-.117-.947-.245-1.393-.379s-.891-.273-1.3-.418c.781-5.5,1.487-8.957,1.487-8.957l.4,1.008Z" transform="translate(-477.588 -243.371)" fill="#e2cb00"/>
          <path id="Path_281" data-name="Path 281" d="M539.536,259.521c-.095,2.417-.518,6.3-.886,10.2-.117,1.237-.228,2.479-.323,3.676-.067.746-1.192,4.729-1.237,5.442-.2,3.409-1.871,5.96-.289,11.151a8.171,8.171,0,0,1,.473,2.4c0,.356-.462.73-.646.83a10.909,10.909,0,0,1-3.548.847h-.005a92.046,92.046,0,0,1-9.848.451c-3.4,0-8.511-.54-9.157-1.4-.59-.785-.044-1.927.234-3.5,1.254-7.113.808-10.822.73-15.958,0-.128-.005-.256-.005-.39-.128-7.921-.652-14.7-.284-17.145l.328-.228c.54-.368,1.07-.7,1.582-.986.045-.022.1-.056.156-.089.156-.089.317-.172.468-.256a1.8,1.8,0,0,1,.178-.089,38.82,38.82,0,0,1,3.8-1.5c.122-.039.234-.078.329-.106.908-.055,1.893-.066,2.957-.038.925.027,2.34.15,3.877.351h.005a40.059,40.059,0,0,1,5.147.963l.028.011a10.6,10.6,0,0,1,4.05,2.835A13.719,13.719,0,0,1,539.536,259.521Z" transform="translate(-477.67 -232.287)" fill="#ffff16"/>
          <path id="Path_282" data-name="Path 282" d="M555.353,301.926a8.173,8.173,0,0,1,.473,2.4c0,.356-.462.73-.646.83a10.91,10.91,0,0,1-3.548.847,2.516,2.516,0,0,0,1.777-2.044c0-.653-.847-5.063-.613-7.91s.7-7.363-.184-10.984-1.715-8.383-1.715-8.383l4.963,3s.641.9,1.343,1.983c-.117,1.237-.229,2.479-.323,3.676C556.813,286.079,553.771,296.735,555.353,301.926Z" transform="translate(-496.222 -244.224)" fill="#e2cb00"/>
          <g id="Group_25" data-name="Group 25" transform="translate(34.966)">
            <path id="Path_283" data-name="Path 283" d="M516.13,224.354s.429,5.191,2.15,5.54,1.3-1.857,1.3-1.857l-.24-2.465Z" transform="translate(-513.798 -218.053)" fill="#002c54"/>
            <path id="Path_284" data-name="Path 284" d="M529.741,248.975c-3.37-.4-2.111-3.676-1.649-4.428.122-.039.7-.217.746-.245a.019.019,0,0,1,.011-.005.924.924,0,0,0,.261-.39,7.992,7.992,0,0,0,.167-2.7v-.317c.055-.206.112-.4.156-.585l1.771-1.393,3.748-2.947s-1,4.93-.195,8.038a1.171,1.171,0,0,0,.5.747c0,.005.005,0,.005,0a.907.907,0,0,0,.373.133C536.553,245.32,535.272,249.632,529.741,248.975Z" transform="translate(-519.473 -223.862)" fill="#e5918f"/>
            <path id="Path_285" data-name="Path 285" d="M534.345,242.236a5.591,5.591,0,0,1-3.6,4.8,7.9,7.9,0,0,0,.168-2.691l1.5-1.175Z" transform="translate(-521.107 -226.997)" fill="#cc6362"/>
            <path id="Path_286" data-name="Path 286" d="M517.776,220.677s.779,10.77,3.687,11.685a7.563,7.563,0,0,0,6.365-3.229c.767-1.031,1.735-1.263,2.051-2.508.514-2.022,1.239-5.752.314-8C528.877,215.424,517.9,212.882,517.776,220.677Z" transform="translate(-514.622 -213.638)" fill="#e5918f"/>
            <path id="Path_287" data-name="Path 287" d="M527.081,214.959a3.167,3.167,0,0,0-2.028-2.687c-1.971-.923-6.068-.525-10.292.417-.99.221-2.233-.387-2.924.093-.836.58,0,3.229,0,3.229,1.629,4.934,7.624,3.329,9.426,2.721.428,1.271.373,3.036,1.442,3.947a3.5,3.5,0,0,0,2.742.355c.133.251.63.473.731.819a17.435,17.435,0,0,1,.28,4.349l.508-.248C527.028,227.575,532.286,215.12,527.081,214.959Z" transform="translate(-511.465 -211.748)" fill="#002c54"/>
            <g id="Group_22" data-name="Group 22" transform="translate(3.586 8.591)">
              <path id="Path_288" data-name="Path 288" d="M521.191,231.669a1.319,1.319,0,1,1-1.536-1.405A1.5,1.5,0,0,1,521.191,231.669Z" transform="translate(-518.64 -229.593)" fill="none" stroke="#fff" stroke-miterlimit="10" stroke-width="0.501"/>
              <path id="Path_289" data-name="Path 289" d="M528.222,230.355a1.319,1.319,0,1,1-1.536-1.405A1.5,1.5,0,0,1,528.222,230.355Z" transform="translate(-522.157 -228.935)" fill="none" stroke="#fff" stroke-miterlimit="10" stroke-width="0.501"/>
              <path id="Path_290" data-name="Path 290" d="M523.744,232.9s.154-.25.963-.18" transform="translate(-521.193 -230.82)" fill="none" stroke="#fff" stroke-miterlimit="10" stroke-width="0.501"/>
              <line id="Line_2" data-name="Line 2" y1="0.48" x2="3.004" transform="translate(6.095 1.154)" fill="none" stroke="#fff" stroke-miterlimit="10" stroke-width="0.501"/>
            </g>
            <g id="Group_23" data-name="Group 23" transform="translate(12.047 9.022)">
              <path id="Path_291" data-name="Path 291" d="M536.427,234.334c2.069.792,2.715-4.3.75-4.525-1.49-.171-1.55,1.907-1.55,1.907S535.245,233.882,536.427,234.334Z" transform="translate(-535.568 -229.799)" fill="#e5918f"/>
            </g>
            <g id="Group_24" data-name="Group 24" transform="translate(12.888 9.8)" opacity="0.5">
              <path id="Path_292" data-name="Path 292" d="M537.95,231.355s-1.222.647-.438,2.632" transform="translate(-537.25 -231.355)" fill="none" stroke="#cc6362" stroke-miterlimit="10" stroke-width="0.724"/>
              <path id="Path_293" data-name="Path 293" d="M538.292,233.289a1.08,1.08,0,0,0-1,.746" transform="translate(-537.268 -232.322)" fill="none" stroke="#cc6362" stroke-miterlimit="10" stroke-width="0.724"/>
            </g>
          </g>
          <path id="Path_294" data-name="Path 294" d="M566.5,293.16v.005c-.909,1.055-4.359,1.823-6.019.364a9.633,9.633,0,0,1-1.689-3.209,99.348,99.348,0,0,1-2.865-9.7l7.72-3.945s.993,4.453,1.849,8.686c0,0,.008.043.023.118.278,1.356.538,2.689.741,3.833a.532.532,0,0,1,.015.091A16.216,16.216,0,0,1,566.5,293.16Z" transform="translate(-498.735 -244.224)" fill="#e5918f"/>
          <path id="Path_295" data-name="Path 295" d="M550.089,265.48a92.724,92.724,0,0,0,3.089,8.975,12.228,12.228,0,0,0,5.666-.685,10.44,10.44,0,0,0,3.609-2.344s-1.555-4.368-2.949-7.506a15.192,15.192,0,0,0-2.546-4.427,12.268,12.268,0,0,0-3.065-2.28Z" transform="translate(-495.818 -234.488)" fill="#ffff16"/>
          <path id="Path_296" data-name="Path 296" d="M561.515,266.644l-4.531-1.955-3.57-9.2s.654.2,1.516.547h0c.017.008.053.02.116.046a.471.471,0,0,1,.066.029c.77.36,3.756,2.12,5.823,8.515l.049.161c.219.737.381,1.33.468,1.636.008.029.017.058.025.091S561.5,266.6,561.515,266.644Z" transform="translate(-497.481 -233.627)" fill="#ffff16"/>
          <g id="Group_26" data-name="Group 26" transform="translate(38.787 41.025)">
            <path id="Path_297" data-name="Path 297" d="M553.316,301.737v.005c-.066.565-.222.972-.5,1.116-.044.029-.678.406-.723.434a38.533,38.533,0,0,1-4.785,2.475,173.379,173.379,0,0,1-16.711,6,19.686,19.686,0,0,0-1.022-2.333,43.783,43.783,0,0,0,7.255-4.453c3.6-2.749,8.781-6.087,8.781-6.087l1.308-1.539s4.649-4.28,5.4-3.419c0,0,.008.043.023.118.111.446.48,2.088.741,3.833a.531.531,0,0,1,.015.091A16.217,16.217,0,0,1,553.316,301.737Z" transform="translate(-524.342 -293.826)" fill="#e5918f"/>
            <path id="Path_298" data-name="Path 298" d="M524.874,323.9a2.876,2.876,0,0,1-1.835.353c-.512-.107-.719-.317-1.1-.384a8.531,8.531,0,0,1-1.888-.436c-.5-.245-.694-.272-.677.229s1,.935,1.271,1.074a2.533,2.533,0,0,1,.639.64c.036.056-1.643.935-2.094.756a1.308,1.308,0,0,0-.058.63c.077.225.422.3.449.418s-.079.345,0,.525.383.18.507.473-.012.3.078.6.481.36.555.517.035.341.2.45a7.612,7.612,0,0,0,2.225-.612c.551-.236,2.024-2.357,3.654-3.08Z" transform="translate(-519.109 -308.549)" fill="#e5918f"/>
          </g>
          <path id="Path_299" data-name="Path 299" d="M534.329,342.327H522.585v-1.149h11.745a.574.574,0,0,1,.575.574h0A.575.575,0,0,1,534.329,342.327Z" transform="translate(-482.061 -276.485)" fill="#dec1df"/>
          <path id="Path_300" data-name="Path 300" d="M497.136,320.267H467.729a.783.783,0,0,1-.755-.574l-6.019-21.666a.753.753,0,0,1,.725-.954h28.437a1.475,1.475,0,0,1,1.421,1.081l6,21.588A.415.415,0,0,1,497.136,320.267Z" transform="translate(-451.222 -254.425)" fill="#dec1df"/>
          <path id="Path_301" data-name="Path 301" d="M495.006,320.267H465.6a.784.784,0,0,1-.756-.574l-6.018-21.666a.753.753,0,0,1,.725-.954h28.436a1.475,1.475,0,0,1,1.422,1.081l6,21.588A.415.415,0,0,1,495.006,320.267Z" transform="translate(-450.157 -254.425)" fill="#8e028e"/>
        </g>
      </g>
      <g id="Group_29" data-name="Group 29" transform="translate(117.069 169.591)">
        <path id="Path_302" data-name="Path 302" d="M298.064,306.3l3.406-3.492a9.136,9.136,0,0,1,.3-1.886,8.667,8.667,0,0,1,.9-1.677,1.234,1.234,0,0,1,.716,0,3.279,3.279,0,0,1,.685-.159,2.009,2.009,0,0,1,.609.194s.509-.034.721-.034a.453.453,0,0,1,.28.059,15.043,15.043,0,0,1,1.219-1.263c.4-.318,1.006-.9,1.187-.9s.245.3.121.619a3.528,3.528,0,0,1-.662.832L306,300.944a3.336,3.336,0,0,0,.406-.194c.141-.088,1.088-.973,1.146-1.008s.481-.318.729-.035-1.625,2.526-1.926,2.827a16.4,16.4,0,0,1-2.022,1.172s-1.817,3.269-1.994,3.481S298.064,306.3,298.064,306.3Z" transform="translate(-241.198 -282.544)" fill="#e49191"/>
        <path id="Path_303" data-name="Path 303" d="M291.815,277.449s-1.9,11.022-3.694,11.278c0,0-7.15.288-8.743-8.386-1.382-7.522,4.159-9.126,6.75-8.551S292.372,272.74,291.815,277.449Z" transform="translate(-231.744 -269.812)" fill="#e49191"/>
        <path id="Path_304" data-name="Path 304" d="M284.755,296.261a10.081,10.081,0,0,0-1.353,4.62,10.615,10.615,0,0,1-5.723-.988,40.507,40.507,0,0,0,1.661-9.622" transform="translate(-231.002 -279.109)" fill="#e49191"/>
        <path id="Path_305" data-name="Path 305" d="M281.995,268.071c-3.907.863-3.595,3.3-3.595,3.3-1.829.453-2.222,1.208-2.207,4.584s1.237,7.431,1.911,7.761a18.078,18.078,0,0,0,4.812.23c.319-.115,1.655-3.213,1.344-3.758s.015-2.688.905-2.769.715,1.3.715,1.3l.731-.16.565-1.385c5.163.307,6.5-5.577,6.5-5.577C292.433,270.784,285.9,267.208,281.995,268.071Z" transform="translate(-230.259 -267.938)" fill="#002c54"/>
        <path id="Path_306" data-name="Path 306" d="M198.824,417.439l3.951.571-1.309,4.613-4.279-1.079a2.782,2.782,0,0,1,.887-4.105A1.439,1.439,0,0,1,198.824,417.439Z" transform="translate(-190.46 -342.688)" fill="#e5918f"/>
        <path id="Path_307" data-name="Path 307" d="M232.03,375.86l-5.823-17.631s-1.765-.629-2.669,0c0,0-6.066,3.262-5.419,12.563a151.967,151.967,0,0,0,2.568,17.666l-15.535-.575a5.293,5.293,0,0,0-.677,5.244s19.521,5.25,22.271,5.735c2.235.395,4.681.7,5.862-.313C234.689,396.766,232.03,375.86,232.03,375.86Z" transform="translate(-194.179 -312.959)" fill="#38043b"/>
        <path id="Path_308" data-name="Path 308" d="M235.625,417.439l3.951.571-1.309,4.613-4.279-1.079a2.782,2.782,0,0,1,.887-4.105A1.439,1.439,0,0,1,235.625,417.439Z" transform="translate(-208.867 -342.688)" fill="#e5918f"/>
        <path id="Path_309" data-name="Path 309" d="M228.025,418.673c-.088.908.706,1.726.561,1.952s-2.8,4.682-2.8,4.682,2,.873,1.681,2.134h-5.077a4.215,4.215,0,0,1-1.294-2.911,14.728,14.728,0,0,1,1.251-3.719c.905-1.746,2.964-5.689,2.964-5.689a2.874,2.874,0,0,1,1.692.032,10.265,10.265,0,0,1,2.456,1.1S228.243,416.428,228.025,418.673Z" transform="translate(-202.701 -341.504)" fill="#450d48"/>
        <path id="Path_310" data-name="Path 310" d="M278.129,395.125c-1.254-4.677-13.048-24.646-17.038-30.038-8.2-3.558-16.93-6.578-16.93-6.578-3.612.863-5.392,8.142-3.343,12.994,1.406,3.329,10.323,11.708,15.783,16.641l-15.153-.018s-1.785,2.668-.167,5.2c0,0,25.2,5.731,27.413,6.054a50.238,50.238,0,0,0,7.171,0S279.184,399.062,278.129,395.125Z" transform="translate(-212.132 -313.239)" fill="#450d48"/>
        <path id="Path_311" data-name="Path 311" d="M191.224,418.673c-.088.908.706,1.726.561,1.952s-2.8,4.682-2.8,4.682,2.005.873,1.682,2.134h-5.077a4.213,4.213,0,0,1-1.294-2.911,14.729,14.729,0,0,1,1.251-3.719c.905-1.746,2.964-5.689,2.964-5.689a2.874,2.874,0,0,1,1.692.032,10.276,10.276,0,0,1,2.456,1.1S191.442,416.428,191.224,418.673Z" transform="translate(-184.294 -341.504)" fill="#450d48"/>
        <path id="Path_312" data-name="Path 312" d="M335.512,308.679l-8.128,14.3-5.821-5.8-4.818,7.172,1.4.672-.5.419s11.233,5.471,12.579,4.264,7.618-19.4,7.618-19.4Z" transform="translate(-250.542 -288.315)" fill="#e49191"/>
        <path id="Path_313" data-name="Path 313" d="M284.106,315.464s-1.534,6.473-4.6,9.542l-7.852-2.989s-3.644,6.128-7.208,10.826c-1.37,1.814-1.824,4.368-3.434,4.7-.1-.035-.195-.065-.295-.09-4.364-1.31-10.8.08-16.115-1.894-5.868-2.184-4.728-3.414-4.728-3.414a75.8,75.8,0,0,0,5.578-13.206,80.96,80.96,0,0,0,1.939-7.962,9.168,9.168,0,0,1,7.717-7.383c.045-.005.085-.015.13-.02,4.448-.565,16.095.81,18.359,1.779S284.106,315.464,284.106,315.464Z" transform="translate(-212.047 -285.698)" fill="#ffff16"/>
        <path id="Path_314" data-name="Path 314" d="M292.891,339.56s-3.644,6.128-7.208,10.826c-1.37,1.814-1.824,4.369-3.434,4.7.7-.25,1.874-3.959,2.289-4.793s1.085-1.664,2.524-4.578,3.382-7.2,3.382-7.2Z" transform="translate(-233.288 -303.241)" fill="#e2cb00"/>
        <path id="Path_315" data-name="Path 315" d="M273.26,417.795a25.428,25.428,0,0,1,7.833,1.126" transform="translate(-228.792 -342.889)" fill="none" stroke="#000" stroke-miterlimit="10" stroke-width="1.065"/>
        <path id="Path_316" data-name="Path 316" d="M359.893,295.59a7.608,7.608,0,0,0-1.367.986l.463-.887a8.732,8.732,0,0,0,.833-.917c.221-.325.1-.65-.069-.667a6.81,6.81,0,0,0-1.28.915l.093-.178a8.732,8.732,0,0,0,.833-.917c.22-.325.1-.65-.069-.667a10.968,10.968,0,0,0-1.584,1.166l-.687.919.517-1.005a4.339,4.339,0,0,0,.455-.7c.181-.363.05-.475-.05-.6s-1.05.586-1.293.868a14.654,14.654,0,0,0-1.07,1.59l-.793,1.641c-.051-.475-.13-1.289-.186-1.807-.081-.747-.757-.924-.781-.561a19.013,19.013,0,0,0-.315,3.12c.085.97.247,1.605.308,2.151a4.282,4.282,0,0,1-.5,1.635s2.262,1.4,2.636.984a17.662,17.662,0,0,0,1.554-1.983,10.561,10.561,0,0,0,.885-2l.707-1.51a8.736,8.736,0,0,0,.833-.917C360.183,295.932,360.067,295.607,359.893,295.59Z" transform="translate(-268.849 -280.489)" fill="#e49191"/>
      </g>
      <g id="Group_31" data-name="Group 31" transform="translate(308.343 139.169)">
        <path id="Path_317" data-name="Path 317" d="M596.571,207.074H570.048a3.078,3.078,0,0,0-3.078,3.078v6.265a3.079,3.079,0,0,0,2.69,3.054.443.443,0,0,1,.388.44v3.43a.2.2,0,0,0,.37.118l2.7-3.778a.447.447,0,0,1,.364-.187h23.088a3.078,3.078,0,0,0,3.078-3.078v-6.265A3.078,3.078,0,0,0,596.571,207.074Z" transform="translate(-566.97 -207.074)" fill="none" stroke="#fff" stroke-miterlimit="10" stroke-width="0.896"/>
        <g id="Group_30" data-name="Group 30" transform="translate(5.12 5.188)">
          <path id="Path_318" data-name="Path 318" d="M579.241,218.467a1.013,1.013,0,1,1-1.014-1.014A1.013,1.013,0,0,1,579.241,218.467Z" transform="translate(-577.214 -217.453)" fill="none" stroke="#fff" stroke-miterlimit="10" stroke-width="0.896"/>
          <path id="Path_319" data-name="Path 319" d="M589.45,218.467a1.013,1.013,0,1,1-1.013-1.014A1.013,1.013,0,0,1,589.45,218.467Z" transform="translate(-582.32 -217.453)" fill="none" stroke="#fff" stroke-miterlimit="10" stroke-width="0.896"/>
          <path id="Path_320" data-name="Path 320" d="M599.659,218.467a1.013,1.013,0,1,1-1.013-1.014A1.013,1.013,0,0,1,599.659,218.467Z" transform="translate(-587.427 -217.453)" fill="none" stroke="#fff" stroke-miterlimit="10" stroke-width="0.896"/>
          <path id="Path_321" data-name="Path 321" d="M609.869,218.467a1.013,1.013,0,1,1-1.014-1.014A1.013,1.013,0,0,1,609.869,218.467Z" transform="translate(-592.533 -217.453)" fill="none" stroke="#fff" stroke-miterlimit="10" stroke-width="0.896"/>
          <path id="Path_322" data-name="Path 322" d="M620.078,218.467a1.013,1.013,0,1,1-1.013-1.014A1.013,1.013,0,0,1,620.078,218.467Z" transform="translate(-597.639 -217.453)" fill="none" stroke="#fff" stroke-miterlimit="10" stroke-width="0.896"/>
        </g>
      </g>
      <g id="Group_33" data-name="Group 33" transform="translate(125.286 166.639)">
        <path id="Path_323" data-name="Path 323" d="M203.811,262.031h26.523a3.077,3.077,0,0,1,3.077,3.077v6.266a3.078,3.078,0,0,1-2.689,3.053.444.444,0,0,0-.388.441v3.43a.2.2,0,0,1-.37.118l-2.7-3.778a.447.447,0,0,0-.364-.187H203.811a3.078,3.078,0,0,1-3.078-3.078v-6.266A3.078,3.078,0,0,1,203.811,262.031Z" transform="translate(-200.733 -262.031)" fill="none" stroke="#fff" stroke-miterlimit="10" stroke-width="0.896"/>
        <g id="Group_32" data-name="Group 32" transform="translate(5.12 5.188)">
          <path id="Path_324" data-name="Path 324" d="M251.814,273.424a1.013,1.013,0,1,0,1.014-1.014A1.014,1.014,0,0,0,251.814,273.424Z" transform="translate(-231.402 -272.41)" fill="none" stroke="#fff" stroke-miterlimit="10" stroke-width="0.896"/>
          <path id="Path_325" data-name="Path 325" d="M241.6,273.424a1.013,1.013,0,1,0,1.013-1.014A1.013,1.013,0,0,0,241.6,273.424Z" transform="translate(-226.296 -272.41)" fill="none" stroke="#fff" stroke-miterlimit="10" stroke-width="0.896"/>
          <path id="Path_326" data-name="Path 326" d="M231.4,273.424a1.013,1.013,0,1,0,1.014-1.014A1.014,1.014,0,0,0,231.4,273.424Z" transform="translate(-221.189 -272.41)" fill="none" stroke="#fff" stroke-miterlimit="10" stroke-width="0.896"/>
          <path id="Path_327" data-name="Path 327" d="M221.186,273.424a1.013,1.013,0,1,0,1.013-1.014A1.013,1.013,0,0,0,221.186,273.424Z" transform="translate(-216.083 -272.41)" fill="none" stroke="#fff" stroke-miterlimit="10" stroke-width="0.896"/>
          <path id="Path_328" data-name="Path 328" d="M210.977,273.424a1.013,1.013,0,1,0,1.013-1.014A1.013,1.013,0,0,0,210.977,273.424Z" transform="translate(-210.977 -272.41)" fill="none" stroke="#fff" stroke-miterlimit="10" stroke-width="0.896"/>
        </g>
      </g>
      <g id="Group_35" data-name="Group 35" transform="translate(235.374 115.059)">
        <path id="Path_329" data-name="Path 329" d="M474.153,168.493H425.811a4.827,4.827,0,0,1-4.827-4.827h0a4.827,4.827,0,0,1,4.827-4.827h48.342a4.827,4.827,0,0,1,4.827,4.827h0A4.827,4.827,0,0,1,474.153,168.493Z" transform="translate(-420.984 -158.838)" fill="#fff" stroke="#8e028e" stroke-miterlimit="10" stroke-width="0.4"/>
        <g id="Group_34" data-name="Group 34" transform="translate(47.326 1.927)">
          <path id="Path_330" data-name="Path 330" d="M520.8,165.262a2.567,2.567,0,1,1-2.567-2.568A2.567,2.567,0,0,1,520.8,165.262Z" transform="translate(-515.669 -162.694)" fill="none" stroke="#8e028e" stroke-miterlimit="10" stroke-width="1.672"/>
          <line id="Line_3" data-name="Line 3" x2="1.417" y2="1.417" transform="translate(4.382 4.383)" fill="none" stroke="#8e028e" stroke-linecap="round" stroke-miterlimit="10" stroke-width="1.672"/>
        </g>
      </g>
      <g id="Group_58" data-name="Group 58" transform="translate(92.503 71.31)">
        <g id="Group_36" data-name="Group 36" transform="translate(103.177 164.83)">
          <rect id="Rectangle_36" data-name="Rectangle 36" width="19.867" height="19.867" rx="7.708" transform="translate(3.621)" fill="#8e028e"/>
          <rect id="Rectangle_37" data-name="Rectangle 37" width="19.867" height="19.867" rx="7.708" fill="#e2cb00"/>
          <path id="Path_331" data-name="Path 331" d="M355.955,413.382l5.7,3.292a.528.528,0,0,1,0,.915l-5.7,3.292a.528.528,0,0,1-.792-.457v-6.585A.528.528,0,0,1,355.955,413.382Z" transform="translate(-348.368 -407.198)" fill="#fff"/>
        </g>
        <g id="Group_37" data-name="Group 37" transform="translate(222.944 158.726)">
          <rect id="Rectangle_38" data-name="Rectangle 38" width="25.971" height="25.971" rx="10.076" transform="translate(4.733 0)" fill="#8e028e"/>
          <rect id="Rectangle_39" data-name="Rectangle 39" width="25.971" height="25.971" rx="10.076" transform="translate(0 0)" fill="#e2cb00"/>
          <path id="Path_332" data-name="Path 332" d="M607.16,398.5a3.12,3.12,0,1,1-3.12-3.12A3.12,3.12,0,0,1,607.16,398.5Z" transform="translate(-591.055 -392.124)" fill="#fff"/>
          <path id="Path_333" data-name="Path 333" d="M607.158,416.245v4.606a.754.754,0,0,1-.753.754H594.9a.754.754,0,0,1-.754-.754v-4.606a6.5,6.5,0,0,1,6.5-6.5h0A6.5,6.5,0,0,1,607.158,416.245Z" transform="translate(-587.668 -399.309)" fill="#fff"/>
        </g>
        <g id="Group_38" data-name="Group 38" transform="translate(166.872 57.43)">
          <path id="Path_334" data-name="Path 334" d="M479.979,187.744H469.768a.767.767,0,0,1-.767-.767h0a.768.768,0,0,1,.767-.767h10.211a.767.767,0,0,1,.767.767h0A.767.767,0,0,1,479.979,187.744Z" transform="translate(-469.001 -186.21)" fill="#f0f4ff"/>
          <path id="Path_335" data-name="Path 335" d="M503.24,187.744h-7.39a.767.767,0,0,1-.767-.767h0a.768.768,0,0,1,.767-.767h7.39a.767.767,0,0,1,.767.767h0A.767.767,0,0,1,503.24,187.744Z" transform="translate(-482.046 -186.21)" fill="#f0f4ff"/>
          <path id="Path_336" data-name="Path 336" d="M474.107,194.494h-4.339a.767.767,0,0,1-.767-.767h0a.768.768,0,0,1,.767-.767h4.339a.768.768,0,0,1,.767.767h0A.767.767,0,0,1,474.107,194.494Z" transform="translate(-469.001 -189.586)" fill="#f0f4ff"/>
          <path id="Path_337" data-name="Path 337" d="M497.113,194.494H483.6a.767.767,0,0,1-.767-.767h0a.768.768,0,0,1,.767-.767h13.512a.767.767,0,0,1,.767.767h0A.767.767,0,0,1,497.113,194.494Z" transform="translate(-475.919 -189.586)" fill="#f0f4ff"/>
          <path id="Path_338" data-name="Path 338" d="M483.228,201.244h-13.46a.767.767,0,0,1-.767-.767h0a.768.768,0,0,1,.767-.767h13.46a.767.767,0,0,1,.767.767h0A.767.767,0,0,1,483.228,201.244Z" transform="translate(-469.001 -192.962)" fill="#f0f4ff"/>
          <path id="Path_339" data-name="Path 339" d="M506.293,201.244h-4.338a.768.768,0,0,1-.768-.767h0a.768.768,0,0,1,.768-.767h4.338a.767.767,0,0,1,.767.767h0A.767.767,0,0,1,506.293,201.244Z" transform="translate(-485.099 -192.962)" fill="#f0f4ff"/>
        </g>
        <g id="Group_42" data-name="Group 42" transform="translate(10.995 115.519)">
          <rect id="Rectangle_40" data-name="Rectangle 40" width="39.468" height="21.816" rx="3.823" fill="#8e028e"/>
          <line id="Line_4" data-name="Line 4" x2="36.113" transform="translate(1.677 2.947)" fill="none" stroke="#b400c1" stroke-linecap="round" stroke-miterlimit="10" stroke-width="0.896"/>
          <circle id="Ellipse_9" data-name="Ellipse 9" cx="0.437" cy="0.437" r="0.437" transform="translate(36.4 1.01)" fill="#fff"/>
          <circle id="Ellipse_10" data-name="Ellipse 10" cx="0.437" cy="0.437" r="0.437" transform="translate(34.119 1.01)" fill="#fff"/>
          <circle id="Ellipse_11" data-name="Ellipse 11" cx="0.437" cy="0.437" r="0.437" transform="translate(31.839 1.01)" fill="#fff"/>
          <g id="Group_41" data-name="Group 41" transform="translate(1.677 4.676)">
            <g id="Group_40" data-name="Group 40" transform="translate(8.497)">
              <path id="Path_346" data-name="Path 346" d="M204.508,312.989H178.1a.6.6,0,0,1-.6-.6h0a.6.6,0,0,1,.6-.6h26.408a.6.6,0,0,1,.6.6h0A.6.6,0,0,1,204.508,312.989Z" transform="translate(-177.497 -311.781)" fill="#b400c1"/>
              <path id="Path_347" data-name="Path 347" d="M204.508,318.573H178.1a.6.6,0,0,1-.6-.6h0a.6.6,0,0,1,.6-.6h26.408a.6.6,0,0,1,.6.6h0A.6.6,0,0,1,204.508,318.573Z" transform="translate(-177.497 -314.574)" fill="#b400c1"/>
              <path id="Path_348" data-name="Path 348" d="M204.508,324.156H178.1a.6.6,0,0,1-.6-.6h0a.6.6,0,0,1,.6-.6h26.408a.6.6,0,0,1,.6.6h0A.6.6,0,0,1,204.508,324.156Z" transform="translate(-177.497 -317.366)" fill="#b400c1"/>
              <path id="Path_349" data-name="Path 349" d="M204.508,329.739H178.1a.6.6,0,0,1-.6-.6h0a.6.6,0,0,1,.6-.6h26.408a.6.6,0,0,1,.6.6h0A.6.6,0,0,1,204.508,329.739Z" transform="translate(-177.497 -320.159)" fill="#b400c1"/>
              <path id="Path_350" data-name="Path 350" d="M204.508,335.323H178.1a.6.6,0,0,1-.6-.6h0a.6.6,0,0,1,.6-.6h26.408a.6.6,0,0,1,.6.6h0A.6.6,0,0,1,204.508,335.323Z" transform="translate(-177.497 -322.952)" fill="#b400c1"/>
              <path id="Path_351" data-name="Path 351" d="M204.508,340.906H178.1a.6.6,0,0,1-.6-.6h0a.6.6,0,0,1,.6-.6h26.408a.6.6,0,0,1,.6.6h0A.6.6,0,0,1,204.508,340.906Z" transform="translate(-177.497 -325.744)" fill="#b400c1"/>
            </g>
          </g>
        </g>
        <g id="Group_46" data-name="Group 46" transform="translate(198.202)">
          <circle id="Ellipse_12" data-name="Ellipse 12" cx="16.247" cy="16.247" r="16.247" transform="matrix(0.233, -0.972, 0.972, 0.233, 0, 31.6)" fill="none" stroke="#dec1df" stroke-miterlimit="10" stroke-width="0.79"/>
          <circle id="Ellipse_13" data-name="Ellipse 13" cx="14.125" cy="14.125" r="14.125" transform="translate(0.953 12.384) rotate(-23.868)" fill="#8e028e"/>
          <path id="Path_352" data-name="Path 352" d="M570.864,109.208a1.286,1.286,0,1,1-1.286-1.286A1.286,1.286,0,0,1,570.864,109.208Z" transform="translate(-549.993 -89.622)" fill="#fff"/>
          <path id="Path_353" data-name="Path 353" d="M565.83,101.737h0a.4.4,0,0,1-.547-.156l-4.154-7.493a.4.4,0,0,1,.156-.547h0a.4.4,0,0,1,.547.156l4.154,7.493A.4.4,0,0,1,565.83,101.737Z" transform="translate(-546.385 -82.404)" fill="#fff"/>
          <path id="Path_354" data-name="Path 354" d="M571.156,110.785h0a.4.4,0,0,1,.569,0l3.594,3.594a.4.4,0,0,1,0,.568h0a.4.4,0,0,1-.569,0l-3.594-3.594A.4.4,0,0,1,571.156,110.785Z" transform="translate(-551.366 -90.996)" fill="#fff"/>
          <g id="Group_43" data-name="Group 43" transform="translate(6.655 6.655)">
            <line id="Line_5" data-name="Line 5" y1="1.624" transform="translate(13.017)" fill="none" stroke="#fff" stroke-linecap="round" stroke-miterlimit="10" stroke-width="2"/>
            <line id="Line_6" data-name="Line 6" x2="1.624" transform="translate(24.236 13.017)" fill="none" stroke="#fff" stroke-linecap="round" stroke-miterlimit="10" stroke-width="2"/>
            <line id="Line_7" data-name="Line 7" y2="1.624" transform="translate(12.844 24.236)" fill="none" stroke="#fff" stroke-linecap="round" stroke-miterlimit="10" stroke-width="2"/>
            <line id="Line_8" data-name="Line 8" x1="1.624" transform="translate(0 12.844)" fill="none" stroke="#fff" stroke-linecap="round" stroke-miterlimit="10" stroke-width="2"/>
          </g>
          <g id="Group_44" data-name="Group 44" transform="translate(8.344 8.344)" opacity="0.5">
            <line id="Line_9" data-name="Line 9" x1="0.812" y1="1.407" transform="translate(4.851)" fill="none" stroke="#dee3fc" stroke-linecap="round" stroke-miterlimit="10" stroke-width="1"/>
            <line id="Line_10" data-name="Line 10" y1="0.812" x2="1.407" transform="translate(21.076 4.851)" fill="none" stroke="#dee3fc" stroke-linecap="round" stroke-miterlimit="10" stroke-width="1"/>
            <line id="Line_11" data-name="Line 11" x2="0.812" y2="1.407" transform="translate(16.819 21.076)" fill="none" stroke="#dee3fc" stroke-linecap="round" stroke-miterlimit="10" stroke-width="1"/>
            <line id="Line_12" data-name="Line 12" x1="1.407" y2="0.812" transform="translate(0 16.819)" fill="none" stroke="#dee3fc" stroke-linecap="round" stroke-miterlimit="10" stroke-width="1"/>
          </g>
          <g id="Group_45" data-name="Group 45" transform="translate(8.431 8.431)" opacity="0.5">
            <line id="Line_13" data-name="Line 13" x1="1.407" y1="0.812" transform="translate(0 4.615)" fill="none" stroke="#dee3fc" stroke-linecap="round" stroke-miterlimit="10" stroke-width="1"/>
            <line id="Line_14" data-name="Line 14" y1="1.407" x2="0.812" transform="translate(16.883)" fill="none" stroke="#dee3fc" stroke-linecap="round" stroke-miterlimit="10" stroke-width="1"/>
            <line id="Line_15" data-name="Line 15" x2="1.407" y2="0.812" transform="translate(20.903 16.883)" fill="none" stroke="#dee3fc" stroke-linecap="round" stroke-miterlimit="10" stroke-width="1"/>
            <line id="Line_16" data-name="Line 16" x1="0.812" y2="1.407" transform="translate(4.615 20.903)" fill="none" stroke="#dee3fc" stroke-linecap="round" stroke-miterlimit="10" stroke-width="1"/>
          </g>
        </g>
        <g id="Group_49" data-name="Group 49" transform="translate(0 71.568)">
          <rect id="Rectangle_41" data-name="Rectangle 41" width="27.407" height="27.407" rx="9.569" transform="translate(2.124 2.374)" fill="#8e028e"/>
          <rect id="Rectangle_42" data-name="Rectangle 42" width="27.407" height="27.407" rx="7.667" fill="#b400c1" stroke="#dee3fc" stroke-miterlimit="10" stroke-width="1"/>
          <g id="Group_48" data-name="Group 48" transform="translate(7.618 4.322)">
            <g id="Group_47" data-name="Group 47">
              <path id="Path_355" data-name="Path 355" d="M161.216,229.385h-.143v-1.57a4.673,4.673,0,1,0-9.346,0v1.57H151.7a1.311,1.311,0,0,0-1.311,1.311v5.917a1.311,1.311,0,0,0,1.311,1.312h9.52a1.312,1.312,0,0,0,1.312-1.312V230.7A1.311,1.311,0,0,0,161.216,229.385Zm-8.305-1.57a3.489,3.489,0,1,1,6.979,0v1.57h-6.979Z" transform="translate(-150.385 -223.141)" fill="#dec1df"/>
              <path id="Path_356" data-name="Path 356" d="M162.56,240.191a1.525,1.525,0,1,0-2.294,1.315.273.273,0,0,1,.138.306l-.265.98a.916.916,0,1,0,1.768,0l-.262-.969a.274.274,0,0,1,.142-.308A1.518,1.518,0,0,0,162.56,240.191Z" transform="translate(-154.949 -230.906)" fill="#fff"/>
            </g>
            <path id="Path_357" data-name="Path 357" d="M161.966,255.743H150.947a.562.562,0,0,1-.562-.562h0a.562.562,0,0,1,.562-.562h11.018a.563.563,0,0,1,.562.562h0A.562.562,0,0,1,161.966,255.743Z" transform="translate(-150.385 -238.885)" fill="#dec1df"/>
            <path id="Path_358" data-name="Path 358" d="M161.966,259.556H150.947a.562.562,0,0,1-.562-.562h0a.562.562,0,0,1,.562-.562h11.018a.562.562,0,0,1,.562.562h0A.563.563,0,0,1,161.966,259.556Z" transform="translate(-150.385 -240.792)" fill="#dec1df"/>
          </g>
        </g>
        <g id="Group_56" data-name="Group 56" transform="translate(226.063 116.033)">
          <g id="Group_50" data-name="Group 50">
            <path id="Rectangle_43" data-name="Rectangle 43" d="M5.634,0H10.5a5.634,5.634,0,0,1,5.634,5.634V10.5A5.633,5.633,0,0,1,10.5,16.135H5.634A5.634,5.634,0,0,1,0,10.5V5.634A5.634,5.634,0,0,1,5.634,0Z" transform="translate(1.251 1.398)" fill="#8e028e"/>
            <rect id="Rectangle_44" data-name="Rectangle 44" width="16.135" height="16.135" rx="4.513" fill="#8e028e" stroke="#dee3fc" stroke-miterlimit="10" stroke-width="1"/>
          </g>
          <g id="Group_55" data-name="Group 55" transform="translate(3.249 3.248)">
            <g id="Group_51" data-name="Group 51" transform="translate(1.059)">
              <path id="Path_359" data-name="Path 359" d="M596.541,319.591a.475.475,0,0,1-.136-.019.5.5,0,0,1-.345-.616l2.44-8.638a.5.5,0,1,1,.962.271l-2.44,8.638A.5.5,0,0,1,596.541,319.591Z" transform="translate(-596.041 -309.953)" fill="#fff"/>
            </g>
            <g id="Group_52" data-name="Group 52" transform="translate(5.139)">
              <path id="Path_360" data-name="Path 360" d="M604.7,319.591a.47.47,0,0,1-.136-.019.5.5,0,0,1-.345-.616l2.441-8.638a.5.5,0,1,1,.962.271l-2.441,8.638A.5.5,0,0,1,604.7,319.591Z" transform="translate(-604.204 -309.953)" fill="#fff"/>
            </g>
            <g id="Group_53" data-name="Group 53" transform="translate(0 2.362)">
              <path id="Path_361" data-name="Path 361" d="M603.06,315.679h-8.638a.5.5,0,0,1,0-1h8.638a.5.5,0,0,1,0,1Z" transform="translate(-593.923 -314.679)" fill="#fff"/>
            </g>
            <g id="Group_54" data-name="Group 54" transform="translate(0 6.308)">
              <path id="Path_362" data-name="Path 362" d="M603.06,323.573h-8.638a.5.5,0,0,1,0-1h8.638a.5.5,0,0,1,0,1Z" transform="translate(-593.923 -322.573)" fill="#fff"/>
            </g>
          </g>
        </g>
        <path id="Path_368" data-name="Path 368" d="M153.232,419.38a4.338,4.338,0,0,0-2.227.612,4.671,4.671,0,0,0-9.285,1.038,3.6,3.6,0,0,0-.661-.062,3.567,3.567,0,1,0,0,7.135h12.173a4.361,4.361,0,1,0,0-8.722Z" transform="translate(-136.318 -243.636)" fill="#fff"/>
      </g>
      <g id="Group_61" data-name="Group 61" transform="translate(63.315 202.048)">
        <path id="Path_369" data-name="Path 369" d="M95.08,359.148a4.6,4.6,0,0,1,.062-1.962,19.43,19.43,0,0,0-.219-10.565c-2.335-7.29-11.8-13.747-11.8-13.747s2.569,10.758,4.68,15.339a57.7,57.7,0,0,0,5.751,9.18,4.485,4.485,0,0,1,.826,1.885,78.479,78.479,0,0,1,1.3,15.12l.71.028A79.219,79.219,0,0,0,95.08,359.148Z" transform="translate(-79.939 -332.874)" fill="#dec1df"/>
        <path id="Path_370" data-name="Path 370" d="M115.551,358.775a85.176,85.176,0,0,0,2.754-12.944s-8.484,7-9.179,12.417a18.179,18.179,0,0,0,.578,7.545,5.161,5.161,0,0,1,.2,2.051,71.815,71.815,0,0,0-.175,14.174l.638-.073a70.736,70.736,0,0,1,.1-13.307,5.294,5.294,0,0,1,1.169-2.812A22.221,22.221,0,0,0,115.551,358.775Z" transform="translate(-92.864 -339.355)" fill="#fff"/>
        <path id="Path_371" data-name="Path 371" d="M125.476,345.278s-9.143,3.393-11.534,10.858a19.914,19.914,0,0,0-.2,10.918,3.751,3.751,0,0,1,0,1.86,83.769,83.769,0,0,0-2.175,17.6h.728a83.2,83.2,0,0,1,2.1-17.222,6.457,6.457,0,0,1,1.084-2.315,58.365,58.365,0,0,0,5.75-9.212A98.816,98.816,0,0,0,125.476,345.278Z" transform="translate(-94.164 -339.078)" fill="#dec1df"/>
        <path id="Path_372" data-name="Path 372" d="M91.929,381.976a25.358,25.358,0,0,0-2.111-8.3,2.833,2.833,0,0,1-.213-1.5,13.719,13.719,0,0,0-.213-4.462c-.742-3.663-5.6-11.575-12.642-12.039a51.214,51.214,0,0,1,3.678,7.171c1.581,4.133,3.838,8.456,7.58,10.115a2.813,2.813,0,0,1,1.448,1.5,24.531,24.531,0,0,1,1.832,7.557Z" transform="translate(-76.749 -344.278)" fill="#fff"/>
        <g id="Group_60" data-name="Group 60" transform="translate(7.39 33.755)">
          <g id="Group_59" data-name="Group 59">
            <path id="Path_373" data-name="Path 373" d="M94.565,420.378H106.18l3.014-18.416a1.34,1.34,0,0,0-1.322-1.555h-15a1.339,1.339,0,0,0-1.322,1.555Z" transform="translate(-91.533 -400.406)" fill="#dec1df"/>
          </g>
        </g>
      </g>
      <line id="Line_17" data-name="Line 17" x2="325" transform="translate(49.89 255.775)" fill="none" stroke="#8e028e" stroke-linecap="round" stroke-miterlimit="10" stroke-width="1.114"/>
    </g>
  </g>
</svg>
