<svg xmlns="http://www.w3.org/2000/svg" width="100.103" height="23.374" viewBox="0 0 100.103 23.374">
  <path id="Union_14" data-name="Union 14" d="M-6299.994-885.011a4.532,4.532,0,0,1,2.851-2,8.637,8.637,0,0,0,2.233-.729,1,1,0,0,1-.579,1.152c-.622.261-1.106.161-1.106.475s1.031.233,2.139-.475a8.124,8.124,0,0,0,2.391-2.965,1.184,1.184,0,0,1,1.046-.638c-.44,1.079-.527,2.98-2.124,4.692s-3.279,1.563-4.292,2.429a15.612,15.612,0,0,0-2.348,3.527l14.043-.011a4.017,4.017,0,0,1-3.863,2.915l-15.4.011Zm67.845-2.249V-895h1.943v7.722a2.986,2.986,0,0,0,3.131,3.294,2.972,2.972,0,0,0,3.114-3.294V-895h1.945v7.741a4.72,4.72,0,0,1-5.059,5.04A4.725,4.725,0,0,1-6232.149-887.26Zm25.343,4.859v-10.818l-4.59,10.818h-1.313l-4.59-10.853V-882.4h-1.908V-895h3.042l4.122,9.72,4.1-9.72h3.042v12.6Zm-29.809,0-3.4-5.076h-2.465v5.076h-1.943V-895h5.562c2.537,0,4.32,1.62,4.32,3.726a3.8,3.8,0,0,1-3.457,3.726l3.87,5.147Zm-5.867-6.7h3.546a2.267,2.267,0,0,0,2.484-2.16,2.226,2.226,0,0,0-2.484-2.07h-3.546Zm-10.188,6.7v-10.872h-4.067V-895h10.133v1.728h-4.085V-882.4Zm-8.64,0-6.714-10.116V-882.4h-1.909V-895h2.394l6.733,10.081V-895h1.907v12.6Zm-20.215,0V-895h8.767v1.693h-6.858v3.51h6.624v1.638h-6.624v4.068h6.858v1.692Zm-18.187-4.037c.44-1.081.527-2.981,2.124-4.692s3.279-1.565,4.292-2.429a15.7,15.7,0,0,0,2.348-3.529h-10.85a4.019,4.019,0,0,1,3.864-2.915h12.2l-5.007,8.386a4.521,4.521,0,0,1-2.852,2,8.64,8.64,0,0,0-2.231.731,1.006,1.006,0,0,1,.579-1.154c.622-.261,1.106-.161,1.106-.475s-1.031-.231-2.139.475a8.137,8.137,0,0,0-2.391,2.965,1.181,1.181,0,0,1-1.044.639Z" transform="translate(6305 900.001)" fill="#fff"/>
</svg>
